DBRep_DrawableShape

CASCADE Topology V1, (c) Matra-Datavision
Locations 17
1
              1               0               0               0 
              0               1               0               0 
              0               0               1               0 
1
              1               0               0               0 
              0               1               0               0 
              0               0               1               0 
2  2 -1 0
1
              1               0               0               0 
              0               1               0               0 
              0               0               1               0 
1
              1               0               0               0 
              0               1               0               0 
              0               0               1               0 
1
              1               0               0               0 
              0               1               0               0 
              0               0               1               0 
2  4 1 5 1 6 -1 0
2  6 1 5 -1 4 -1 0
2  5 -1 4 -1 0
2  2 -1 6 1 5 -1 4 -1 0
1
              1               0               0               0 
              0               1               0               0 
              0               0               1          38.354 
2  4 1 5 1 6 -1 11 1 0
2  11 -1 6 1 5 -1 4 -1 0
2  2 -1 11 -1 6 1 5 -1 4 -1 0
2  6 -1 0
2  4 1 5 1 0
2  6 -1 11 1 0
Curve2ds 0
Curves 42
1 5.0870418548266621e-43 0 0 0 0 1 
1 5.0870418548266621e-43 11.65 0 0 0 1 
1 5.0870418548266621e-43 0 0 0 1 0 
1 5.0870418548266621e-43 0 0 0 1 0 
1 -47.904000000000003 11.65 0 0 0 1 
1 5.0870418548266621e-43 11.65 0 -1 0 0 
1 5.0870418548266621e-43 11.65 0 -1 0 0 
1 -54.611000000000004 27.469000000000001 0 0 0 1 
1 -47.904000000000003 11.65 0 -0.39034806203548073 0.92066736146403305 0 
1 -47.904000000000003 11.65 0 -0.39034806203548073 0.92066736146403305 0 
1 -86.983000000000004 27.469000000000001 0 0 0 1 
1 -54.611000000000004 27.469000000000001 0 -1 0 0 
1 -54.611000000000004 27.469000000000001 0 -1 0 0 
1 -97.189999999999998 11.65 0 0 0 1 
1 -86.983000000000004 27.469000000000001 0 -0.54217163460749651 -0.84026776602880304 0 
1 -86.983000000000004 27.469000000000001 0 -0.54217163460749651 -0.84026776602880304 0 
1 -103.90000000000001 27.469000000000001 0 0 0 1 
1 -97.189999999999998 11.65 0 -0.39049604307292973 0.92060460586746184 0 
1 -97.189999999999998 11.65 0 -0.39049604307292973 0.92060460586746184 0 
1 -138.02000000000001 27.469000000000001 0 0 0 1 
1 -103.90000000000001 27.469000000000001 0 -1 0 0 
1 -103.90000000000001 27.469000000000001 0 -1 0 0 
1 -146.18000000000001 11.65 0 0 0 1 
1 -138.02000000000001 27.469000000000001 0 -0.45843683355520659 -0.88872699387375198 0 
1 -138.02000000000001 27.469000000000001 0 -0.45843683355520659 -0.88872699387375198 0 
1 -157.32999999999998 27.469000000000001 0 0 0 1 
1 -146.18000000000001 11.65 0 -0.57611910678275624 0.81736575338084672 0 
1 -146.18000000000001 11.65 0 -0.57611910678275624 0.81736575338084672 0 
1 -186.78999999999999 27.469000000000001 0 0 0 1 
1 -157.32999999999998 27.469000000000001 0 -1 0 0 
1 -157.32999999999998 27.469000000000001 0 -1 0 0 
1 -186.78999999999999 -1.8599999999999999 0 0 0 1 
1 -186.78999999999999 27.469000000000001 0 0 -1 0 
1 -186.78999999999999 27.469000000000001 0 0 -1 0 
1 -47.903999999999996 -1.8600000000000001 0 0 0 1 
1 -186.78999999999999 -1.8600000000000001 0 1 0 0 
1 -186.78999999999999 -1.8600000000000001 0 1 0 0 
1 -47.904000000000003 0 0 0 0 1 
1 -47.904000000000003 -1.8600000000000001 0 0 1 0 
1 -47.904000000000003 -1.8600000000000001 0 0 1 0 
1 -47.904000000000003 0 0 1 0 0 
1 -47.904000000000003 0 0 1 0 0 
Polygon3D 0
PolygonOnTriangulations 84
2 1 2 
p 0.169648669194629 1 0 38.354 
2 4 3 
p 0.169648669194629 1 0 38.354 
2 4 3 
p 0.169648669194629 1 0 38.354 
2 1 2 
p 0.169648669194629 1 0 38.354 
2 1 4 
p 0.169648669194629 1 0 11.65 
2 1 2 
p 0.169648669194629 1 0 11.65 
2 2 3 
p 0.169648669194629 1 0 11.65 
2 1 2 
p 0.169648669194629 1 0 11.65 
2 4 3 
p 0.169648669194629 1 0 38.354 
2 1 2 
p 0.169648669194629 1 0 38.354 
2 1 4 
p 0.169648669194629 1 0 47.904 
2 2 3 
p 0.169648669194629 1 0 47.904 
2 2 3 
p 0.169648669194629 1 0 47.904 
2 2 3 
p 0.169648669194629 1 0 47.904 
2 4 3 
p 0.169648669194629 1 0 38.354 
2 1 2 
p 0.169648669194629 1 0 38.354 
2 1 4 
p 0.169648669194629 1 0 17.1821014430715 
2 3 4 
p 0.169648669194629 1 0 17.1821014430715 
2 2 3 
p 0.169648669194629 1 0 17.1821014430715 
2 3 4 
p 0.169648669194629 1 0 17.1821014430715 
2 4 3 
p 0.169648669194629 1 0 38.354 
2 1 2 
p 0.169648669194629 1 0 38.354 
2 1 4 
p 0.169648669194629 1 0 32.372 
2 4 5 
p 0.169648669194629 1 0 32.372 
2 2 3 
p 0.169648669194629 1 0 32.372 
2 4 5 
p 0.169648669194629 1 0 32.372 
2 4 3 
p 0.169648669194629 1 0 38.354 
2 1 2 
p 0.169648669194629 1 0 38.354 
2 1 4 
p 0.169648669194629 1 0 18.8261416652484 
2 5 6 
p 0.169648669194629 1 0 18.8261416652484 
2 2 3 
p 0.169648669194629 1 0 18.8261416652484 
2 5 6 
p 0.169648669194629 1 0 18.8261416652484 
2 4 3 
p 0.169648669194629 1 0 38.354 
2 1 2 
p 0.169648669194629 1 0 38.354 
2 1 4 
p 0.169648669194629 1 0 17.1832727092367 
2 6 7 
p 0.169648669194629 1 0 17.1832727092367 
2 2 3 
p 0.169648669194629 1 0 17.1832727092367 
2 6 7 
p 0.169648669194629 1 0 17.1832727092367 
2 4 3 
p 0.169648669194629 1 0 38.354 
2 1 2 
p 0.169648669194629 1 0 38.354 
2 1 4 
p 0.169648669194629 1 0 34.12 
2 7 8 
p 0.169648669194629 1 0 34.12 
2 2 3 
p 0.169648669194629 1 0 34.12 
2 7 8 
p 0.169648669194629 1 0 34.12 
2 4 3 
p 0.169648669194629 1 0 38.354 
2 1 2 
p 0.169648669194629 1 0 38.354 
2 1 4 
p 0.169648669194629 1 0 17.7996168778994 
2 8 9 
p 0.169648669194629 1 0 17.7996168778994 
2 2 3 
p 0.169648669194629 1 0 17.7996168778994 
2 8 9 
p 0.169648669194629 1 0 17.7996168778994 
2 4 3 
p 0.169648669194629 1 0 38.354 
2 1 2 
p 0.169648669194629 1 0 38.354 
2 1 4 
p 0.169648669194629 1 0 19.3536368933593 
2 9 10 
p 0.169648669194629 1 0 19.3536368933593 
2 2 3 
p 0.169648669194629 1 0 19.3536368933593 
2 9 10 
p 0.169648669194629 1 0 19.3536368933593 
2 4 3 
p 0.169648669194629 1 0 38.354 
2 1 2 
p 0.169648669194629 1 0 38.354 
2 1 4 
p 0.169648669194629 1 0 29.46 
2 10 11 
p 0.169648669194629 1 0 29.46 
2 2 3 
p 0.169648669194629 1 0 29.46 
2 10 11 
p 0.169648669194629 1 0 29.46 
2 4 3 
p 0.169648669194629 1 0 38.354 
2 1 2 
p 0.169648669194629 1 0 38.354 
2 1 4 
p 0.169648669194629 1 0 29.329 
2 11 12 
p 0.169648669194629 1 0 29.329 
2 2 3 
p 0.169648669194629 1 0 29.329 
2 11 12 
p 0.169648669194629 1 0 29.329 
2 4 3 
p 0.169648669194629 1 0 38.354 
2 1 2 
p 0.169648669194629 1 0 38.354 
2 1 4 
p 0.169648669194629 1 0 138.886 
2 12 13 
p 0.169648669194629 1 0 138.886 
2 2 3 
p 0.169648669194629 1 0 138.886 
2 12 13 
p 0.169648669194629 1 0 138.886 
2 4 3 
p 0.169648669194629 1 0 38.354 
2 1 2 
p 0.169648669194629 1 0 38.354 
2 1 4 
p 0.169648669194629 1 0 1.86 
2 13 14 
p 0.169648669194629 1 0 1.86 
2 2 3 
p 0.169648669194629 1 0 1.86 
2 13 14 
p 0.169648669194629 1 0 1.86 
2 1 4 
p 0.169648669194629 1 0 47.904 
2 14 1 
p 0.169648669194629 1 0 47.904 
2 2 3 
p 0.169648669194629 1 0 47.904 
2 14 1 
p 0.169648669194629 1 0 47.904 
Surfaces 16
1 5.0870418548266621e-43 0 0 -1 0 0 0 1 0 0 0 -1 
1 5.0870418548266621e-43 11.65 0 0 -1 0 -1 0 0 -0 -0 -1 
1 -47.904000000000003 11.65 0 -0.92066736146403305 -0.39034806203548073 0 -0.39034806203548073 0.92066736146403305 0 0 0 -1 
1 -54.611000000000004 27.469000000000001 0 0 -1 0 -1 0 0 -0 -0 -1 
1 -86.983000000000004 27.469000000000001 0 0.84026776602880304 -0.54217163460749651 0 -0.54217163460749651 -0.84026776602880304 0 0 0 -1 
1 -97.189999999999998 11.65 0 -0.92060460586746184 -0.39049604307292973 0 -0.39049604307292973 0.92060460586746184 0 0 0 -1 
1 -103.90000000000001 27.469000000000001 0 0 -1 0 -1 0 0 -0 -0 -1 
1 -138.02000000000001 27.469000000000001 0 0.88872699387375198 -0.45843683355520659 0 -0.45843683355520659 -0.88872699387375198 0 0 0 -1 
1 -146.18000000000001 11.65 0 -0.81736575338084672 -0.57611910678275624 0 -0.57611910678275624 0.81736575338084672 0 0 0 -1 
1 -157.32999999999998 27.469000000000001 0 0 -1 0 -1 0 0 -0 -0 -1 
1 -186.78999999999999 27.469000000000001 0 1 0 0 0 -1 0 0 0 -1 
1 -186.78999999999999 -1.8600000000000001 0 0 1 0 1 0 0 0 0 -1 
1 -47.904000000000003 -1.8600000000000001 0 -1 0 0 0 1 0 0 0 -1 
1 -47.904000000000003 0 0 0 1 0 1 0 0 0 0 -1 
1 -98.002271978194983 11.090776436865603 0 0 0 1 1 0 0 0 1 0 
1 -98.002271978194983 11.090776436865603 0 0 0 1 1 0 0 0 1 0 
Triangulations 16
4 2 1 0.169648669194629
5.08704185482666e-43 0 0 5.08704185482666e-43 0 38.354 5.08704185482666e-43 11.65 38.354 5.08704185482666e-43 11.65 0 0 0 0 -38.354 11.65 -38.354 11.65 0 1 2 3 4 1 3 
4 2 1 0.169648669194629
-47.904 0 0 -47.904 0 38.354 5.08704185482666e-43 0 38.354 5.08704185482666e-43 0 0 0 0 0 -38.354 47.904 -38.354 47.904 0 4 1 2 4 2 3 
4 2 1 0.169648669194629
5.08704185482666e-43 11.65 0 5.08704185482666e-43 11.65 38.354 -47.904 11.65 38.354 -47.904 11.65 0 0 0 0 -38.354 47.904 -38.354 47.904 0 4 1 2 4 2 3 
14 12 1 0.169648669194629
5.08704185482666e-43 0 0 5.08704185482666e-43 11.65 0 -47.904 11.65 0 -54.611 27.469 0 -86.983 27.469 0 -97.19 11.65 0 -103.9 27.469 0 -138.02 27.469 0 -146.18 11.65 0 -157.33 27.469 0 -186.79 27.469 0 -186.79 -1.86 0 -47.904 -1.86 0 -47.904 0 0 98.002271978195 -11.0907764368656 98.002271978195 0.559223563134397 50.098271978195 0.559223563134397 43.391271978195 16.3782235631344 11.019271978195 16.3782235631344 0.812271978194985 0.559223563134397 -5.89772802180502 16.3782235631344 -40.017728021805 16.3782235631344 -48.177728021805 0.559223563134397 -59.327728021805 16.3782235631344 -88.787728021805 16.3782235631344 -88.787728021805 -12.9507764368656 50.098271978195 -12.9507764368656 50.098271978195 -11.0907764368656 10 11 12 10 12 9 6 8 9 6 9 12 7 8 6 13 6 12 14 6 13 3 5 6 3 6 14 4 5 3 2 14 1 2 3 14 
14 12 1 0.169648669194629
5.08704185482666e-43 0 0 5.08704185482666e-43 11.65 0 -47.904 11.65 0 -54.611 27.469 0 -86.983 27.469 0 -97.19 11.65 0 -103.9 27.469 0 -138.02 27.469 0 -146.18 11.65 0 -157.33 27.469 0 -186.79 27.469 0 -186.79 -1.86 0 -47.904 -1.86 0 -47.904 0 0 98.002271978195 -11.0907764368656 98.002271978195 0.559223563134397 50.098271978195 0.559223563134397 43.391271978195 16.3782235631344 11.019271978195 16.3782235631344 0.812271978194985 0.559223563134397 -5.89772802180502 16.3782235631344 -40.017728021805 16.3782235631344 -48.177728021805 0.559223563134397 -59.327728021805 16.3782235631344 -88.787728021805 16.3782235631344 -88.787728021805 -12.9507764368656 50.098271978195 -12.9507764368656 50.098271978195 -11.0907764368656 10 11 12 10 12 9 6 8 9 6 9 12 7 8 6 13 6 12 14 6 13 3 5 6 3 6 14 4 5 3 2 14 1 2 3 14 
4 2 1 0.169648669194629
-47.904 11.65 0 -47.904 11.65 38.354 -54.611 27.469 38.354 -54.611 27.469 0 0 0 0 -38.354 17.1821014430715 -38.354 17.1821014430715 0 1 2 3 4 1 3 
4 2 1 0.169648669194629
-54.611 27.469 0 -54.611 27.469 38.354 -86.983 27.469 38.354 -86.983 27.469 0 0 0 0 -38.354 32.372 -38.354 32.372 0 1 2 3 4 1 3 
4 2 1 0.169648669194629
-86.983 27.469 0 -86.983 27.469 38.354 -97.19 11.65 38.354 -97.19 11.65 0 0 0 0 -38.354 18.8261416652484 -38.354 18.8261416652484 0 4 1 2 4 2 3 
4 2 1 0.169648669194629
-97.19 11.65 0 -97.19 11.65 38.354 -103.9 27.469 38.354 -103.9 27.469 0 0 0 0 -38.354 17.1832727092367 -38.354 17.1832727092367 0 4 1 2 4 2 3 
4 2 1 0.169648669194629
-103.9 27.469 0 -103.9 27.469 38.354 -138.02 27.469 38.354 -138.02 27.469 0 0 0 0 -38.354 34.12 -38.354 34.12 0 4 1 2 4 2 3 
4 2 1 0.169648669194629
-138.02 27.469 0 -138.02 27.469 38.354 -146.18 11.65 38.354 -146.18 11.65 0 0 0 0 -38.354 17.7996168778994 -38.354 17.7996168778994 0 4 1 2 4 2 3 
4 2 1 0.169648669194629
-146.18 11.65 0 -146.18 11.65 38.354 -157.33 27.469 38.354 -157.33 27.469 0 0 0 0 -38.354 19.3536368933593 -38.354 19.3536368933593 0 4 1 2 4 2 3 
4 2 1 0.169648669194629
-157.33 27.469 0 -157.33 27.469 38.354 -186.79 27.469 38.354 -186.79 27.469 0 0 0 0 -38.354 29.46 -38.354 29.46 0 1 2 3 4 1 3 
4 2 1 0.169648669194629
-186.79 27.469 0 -186.79 27.469 38.354 -186.79 -1.86 38.354 -186.79 -1.86 0 0 0 0 -38.354 29.329 -38.354 29.329 0 4 1 2 4 2 3 
4 2 1 0.169648669194629
-186.79 -1.86 0 -186.79 -1.86 38.354 -47.904 -1.86 38.354 -47.904 -1.86 0 0 0 0 -38.354 138.886 -38.354 138.886 0 4 1 2 4 2 3 
4 2 1 0.169648669194629
-47.904 -1.86 0 -47.904 -1.86 38.354 -47.904 0 38.354 -47.904 0 0 0 0 0 -38.354 1.86 -38.354 1.86 0 4 1 2 4 2 3 

TShapes 105
Ve
1e-07
5.08704185482666e-43 0 0
0 0

0101101
*
Ve
1e-07
5.08704185482666e-43 0 38.354
0 0

0101101
*
Ed
 1e-07 1 1 0
1  1 0 0 38.354
6  1 1 0
6  2 2 0
0

0101000
+105 3 -104 3 *
Ve
1e-07
5.08704185482666e-43 11.65 0
0 0

0101101
*
Ve
1e-07
5.08704185482666e-43 11.65 38.354
0 0

0101101
*
Ed
 1e-07 1 1 0
1  2 0 0 38.354
6  3 1 0
6  4 3 0
0

0101000
+102 3 -101 3 *
Ed
 1e-07 1 1 0
1  3 0 0 11.65
6  5 1 8
6  6 4 9
0

0101000
+105 10 -102 10 *
Ed
 1e-07 1 1 0
1  4 0 0 11.65
6  7 1 13
6  8 5 9
0

0101000
+104 14 -101 14 *
Wi

0101100
+103 0 -100 0 -99 7 +98 12 *
Fa
0  1e-07 1 0
2  1
0111000
+97 0 *
Ve
1e-07
-47.904 11.65 0
0 0

0101101
*
Ve
1e-07
-47.904 11.65 38.354
0 0

0101101
*
Ed
 1e-07 1 1 0
1  5 0 0 38.354
6  9 3 0
6  10 6 0
0

0101000
+95 3 -94 3 *
Ed
 1e-07 1 1 0
1  6 0 0 47.904
6  11 3 8
6  12 4 9
0

0101000
+102 10 -95 10 *
Ed
 1e-07 1 1 0
1  7 0 0 47.904
6  13 3 13
6  14 5 9
0

0101000
+101 14 -94 14 *
Wi

0101100
+100 0 -93 0 -92 7 +91 12 *
Fa
0  1e-07 2 0
2  3
0111000
+90 0 *
Ve
1e-07
-54.611 27.469 0
0 0

0101101
*
Ve
1e-07
-54.611 27.469 38.354
0 0

0101101
*
Ed
 1e-07 1 1 0
1  8 0 0 38.354
6  15 6 0
6  16 7 0
0

0101000
+88 3 -87 3 *
Ed
 1e-07 1 1 0
1  9 0 0 17.1821014430715
6  17 6 8
6  18 4 9
0

0101000
+95 10 -88 10 *
Ed
 1e-07 1 1 0
1  10 0 0 17.1821014430715
6  19 6 13
6  20 5 9
0

0101000
+94 14 -87 14 *
Wi

0101100
+93 0 -86 0 -85 7 +84 12 *
Fa
0  1e-07 3 0
2  6
0111000
+83 0 *
Ve
1e-07
-86.983 27.469 0
0 0

0101101
*
Ve
1e-07
-86.983 27.469 38.354
0 0

0101101
*
Ed
 1e-07 1 1 0
1  11 0 0 38.354
6  21 7 0
6  22 8 0
0

0101000
+81 3 -80 3 *
Ed
 1e-07 1 1 0
1  12 0 0 32.372
6  23 7 8
6  24 4 9
0

0101000
+88 10 -81 10 *
Ed
 1e-07 1 1 0
1  13 0 0 32.372
6  25 7 13
6  26 5 9
0

0101000
+87 14 -80 14 *
Wi

0101100
+86 0 -79 0 -78 7 +77 12 *
Fa
0  1e-07 4 0
2  7
0111000
+76 0 *
Ve
1e-07
-97.19 11.65 0
0 0

0101101
*
Ve
1e-07
-97.19 11.65 38.354
0 0

0101101
*
Ed
 1e-07 1 1 0
1  14 0 0 38.354
6  27 8 0
6  28 9 0
0

0101000
+74 3 -73 3 *
Ed
 1e-07 1 1 0
1  15 0 0 18.8261416652484
6  29 8 8
6  30 4 9
0

0101000
+81 10 -74 10 *
Ed
 1e-07 1 1 0
1  16 0 0 18.8261416652484
6  31 8 13
6  32 5 9
0

0101000
+80 14 -73 14 *
Wi

0101100
+79 0 -72 0 -71 7 +70 12 *
Fa
0  1e-07 5 0
2  8
0111000
+69 0 *
Ve
1e-07
-103.9 27.469 0
0 0

0101101
*
Ve
1e-07
-103.9 27.469 38.354
0 0

0101101
*
Ed
 1e-07 1 1 0
1  17 0 0 38.354
6  33 9 0
6  34 10 0
0

0101000
+67 3 -66 3 *
Ed
 1e-07 1 1 0
1  18 0 0 17.1832727092367
6  35 9 8
6  36 4 9
0

0101000
+74 10 -67 10 *
Ed
 1e-07 1 1 0
1  19 0 0 17.1832727092367
6  37 9 13
6  38 5 9
0

0101000
+73 14 -66 14 *
Wi

0101100
+72 0 -65 0 -64 7 +63 12 *
Fa
0  1e-07 6 0
2  9
0111000
+62 0 *
Ve
1e-07
-138.02 27.469 0
0 0

0101101
*
Ve
1e-07
-138.02 27.469 38.354
0 0

0101101
*
Ed
 1e-07 1 1 0
1  20 0 0 38.354
6  39 10 0
6  40 11 0
0

0101000
+60 3 -59 3 *
Ed
 1e-07 1 1 0
1  21 0 0 34.12
6  41 10 8
6  42 4 9
0

0101000
+67 10 -60 10 *
Ed
 1e-07 1 1 0
1  22 0 0 34.12
6  43 10 13
6  44 5 9
0

0101000
+66 14 -59 14 *
Wi

0101100
+65 0 -58 0 -57 7 +56 12 *
Fa
0  1e-07 7 0
2  10
0111000
+55 0 *
Ve
1e-07
-146.18 11.65 0
0 0

0101101
*
Ve
1e-07
-146.18 11.65 38.354
0 0

0101101
*
Ed
 1e-07 1 1 0
1  23 0 0 38.354
6  45 11 0
6  46 12 0
0

0101000
+53 3 -52 3 *
Ed
 1e-07 1 1 0
1  24 0 0 17.7996168778994
6  47 11 8
6  48 4 9
0

0101000
+60 10 -53 10 *
Ed
 1e-07 1 1 0
1  25 0 0 17.7996168778994
6  49 11 13
6  50 5 9
0

0101000
+59 14 -52 14 *
Wi

0101100
+58 0 -51 0 -50 7 +49 12 *
Fa
0  1e-07 8 0
2  11
0111000
+48 0 *
Ve
1e-07
-157.33 27.469 0
0 0

0101101
*
Ve
1e-07
-157.33 27.469 38.354
0 0

0101101
*
Ed
 1e-07 1 1 0
1  26 0 0 38.354
6  51 12 0
6  52 13 0
0

0101000
+46 3 -45 3 *
Ed
 1e-07 1 1 0
1  27 0 0 19.3536368933593
6  53 12 8
6  54 4 9
0

0101000
+53 10 -46 10 *
Ed
 1e-07 1 1 0
1  28 0 0 19.3536368933593
6  55 12 13
6  56 5 9
0

0101000
+52 14 -45 14 *
Wi

0101100
+51 0 -44 0 -43 7 +42 12 *
Fa
0  1e-07 9 0
2  12
0111000
+41 0 *
Ve
1e-07
-186.79 27.469 0
0 0

0101101
*
Ve
1e-07
-186.79 27.469 38.354
0 0

0101101
*
Ed
 1e-07 1 1 0
1  29 0 0 38.354
6  57 13 0
6  58 14 0
0

0101000
+39 3 -38 3 *
Ed
 1e-07 1 1 0
1  30 0 0 29.46
6  59 13 8
6  60 4 9
0

0101000
+46 10 -39 10 *
Ed
 1e-07 1 1 0
1  31 0 0 29.46
6  61 13 13
6  62 5 9
0

0101000
+45 14 -38 14 *
Wi

0101100
+44 0 -37 0 -36 7 +35 12 *
Fa
0  1e-07 10 0
2  13
0111000
+34 0 *
Ve
1.00000000333067e-07
-186.79 -1.86 0
0 0

0101101
*
Ve
1.00000000333067e-07
-186.79 -1.86 38.354
0 0

0101101
*
Ed
 1.00000000333067e-07 1 1 0
1  32 0 0 38.354
6  63 14 0
6  64 15 0
0

0101000
+32 3 -31 3 *
Ed
 1e-07 1 1 0
1  33 0 0 29.329
6  65 14 8
6  66 4 9
0

0101000
+39 10 -32 10 *
Ed
 1e-07 1 1 0
1  34 0 0 29.329
6  67 14 13
6  68 5 9
0

0101000
+38 14 -31 14 *
Wi

0101100
+37 0 -30 0 -29 7 +28 12 *
Fa
0  1e-07 11 0
2  14
0111000
+27 0 *
Ve
1.00000003552714e-07
-47.904 -1.86 0
0 0

0101101
*
Ve
1.00000003552714e-07
-47.904 -1.86 38.354
0 0

0101101
*
Ed
 1.00000003552714e-07 1 1 0
1  35 0 0 38.354
6  69 15 0
6  70 16 0
0

0101000
+25 3 -24 3 *
Ed
 1e-07 1 1 0
1  36 0 0 138.886
6  71 15 8
6  72 4 9
0

0101000
+32 10 -25 10 *
Ed
 1e-07 1 1 0
1  37 0 0 138.886
6  73 15 13
6  74 5 9
0

0101000
+31 14 -24 14 *
Wi

0101100
+30 0 -23 0 -22 7 +21 12 *
Fa
0  1e-07 12 0
2  15
0111000
+20 0 *
Ve
1e-07
-47.904 0 0
0 0

0101101
*
Ve
1e-07
-47.904 0 38.354
0 0

0101101
*
Ed
 1e-07 1 1 0
1  38 0 0 38.354
6  75 16 0
6  76 2 0
0

0101000
+18 3 -17 3 *
Ed
 1e-07 1 1 0
1  39 0 0 1.86
6  77 16 8
6  78 4 9
0

0101000
+25 10 -18 10 *
Ed
 1e-07 1 1 0
1  40 0 0 1.86
6  79 16 13
6  80 5 9
0

0101000
+24 14 -17 14 *
Wi

0101100
+23 0 -16 0 -15 7 +14 12 *
Fa
0  1e-07 13 0
2  16
0111000
+13 0 *
Ed
 1e-07 1 1 0
1  41 0 0 47.904
6  81 2 8
6  82 4 9
0

0101000
+18 10 -105 10 *
Ed
 1e-07 1 1 0
1  42 0 0 47.904
6  83 2 13
6  84 5 9
0

0101000
+17 14 -104 14 *
Wi

0101100
+16 0 -103 0 -11 7 +10 12 *
Fa
0  1e-07 14 0
2  2
0111000
+9 0 *
Wi

0101100
+99 0 +92 0 +85 0 +78 0 +71 0 +64 0 +57 0 +50 0 +43 0 +36 0 
+29 0 +22 0 +15 0 +11 0 *
Fa
0  1e-07 15 0
2  4
0111000
+7 16 *
Wi

0101100
+98 0 +91 0 +84 0 +77 0 +70 0 +63 0 +56 0 +49 0 +42 0 +35 0 
+28 0 +21 0 +14 0 +10 0 *
Fa
0  1e-07 16 0
2  5
0111000
+5 16 *
Sh

0101100
+96 0 +89 0 +82 0 +75 0 +68 0 +61 0 +54 0 +47 0 +40 0 +33 0 
+26 0 +19 0 +12 0 +8 0 +6 15 -4 17 *
So

0100000
-3 0 *
Co

1100000
+2 1 *

+1 0 