solid Created by Gmsh
facet normal 1 0 -1.86914e-59
  outer loop
    vertex 5.08704185482666e-43 11.65 0
    vertex 5.087041854826662e-43 0 12.78466666666665
    vertex 5.08704185482666e-43 0 0
  endloop
endfacet
facet normal 1 0 1.86914e-59
  outer loop
    vertex 5.087041854826662e-43 0 25.56933333333329
    vertex 5.08704185482666e-43 11.65 38.354
    vertex 5.08704185482666e-43 0 38.354
  endloop
endfacet
facet normal 1 0 0
  outer loop
    vertex 5.087041854826662e-43 11.65 12.78466666666665
    vertex 5.087041854826662e-43 0 25.56933333333329
    vertex 5.087041854826662e-43 0 12.78466666666665
  endloop
endfacet
facet normal 1 0 -1.86914e-59
  outer loop
    vertex 5.08704185482666e-43 11.65 0
    vertex 5.087041854826662e-43 11.65 12.78466666666665
    vertex 5.087041854826662e-43 0 12.78466666666665
  endloop
endfacet
facet normal 1 0 1.86914e-59
  outer loop
    vertex 5.087041854826662e-43 11.65 25.56933333333329
    vertex 5.08704185482666e-43 11.65 38.354
    vertex 5.087041854826662e-43 0 25.56933333333329
  endloop
endfacet
facet normal 1 0 -0
  outer loop
    vertex 5.087041854826662e-43 11.65 12.78466666666665
    vertex 5.087041854826662e-43 11.65 25.56933333333329
    vertex 5.087041854826662e-43 0 25.56933333333329
  endloop
endfacet
facet normal 0 1 0
  outer loop
    vertex -8.383298539426498 11.65 30.63182018718546
    vertex -11.97606343760532 11.65 19.92427474476947
    vertex -17.96442925952717 11.65 30.95749285782456
  endloop
endfacet
facet normal 0 1 0
  outer loop
    vertex -17.96442925952717 11.65 30.95749285782456
    vertex -11.97606343760532 11.65 19.92427474476947
    vertex -23.95215149452959 11.65 22.85791157459875
  endloop
endfacet
facet normal 0 1 0
  outer loop
    vertex -29.94021078970828 11.65 30.95846573979676
    vertex -17.96442925952717 11.65 30.95749285782456
    vertex -23.95215149452959 11.65 22.85791157459875
  endloop
endfacet
facet normal 0 1 0
  outer loop
    vertex -17.96442925952717 11.65 30.95749285782456
    vertex -29.94021078970828 11.65 30.95846573979676
    vertex -23.952 11.65 38.354
  endloop
endfacet
facet normal 0 1 0
  outer loop
    vertex -35.928 11.65 0
    vertex -47.904 11.65 0
    vertex -35.92800899763454 11.65 7.538998532878268
  endloop
endfacet
facet normal 0 1 0
  outer loop
    vertex -35.92800899763454 11.65 7.538998532878268
    vertex -47.904 11.65 12.78466666666665
    vertex -35.92803487036794 11.65 19.92442113592637
  endloop
endfacet
facet normal 0 1 0
  outer loop
    vertex -8.383298539426498 11.65 30.63182018718546
    vertex 5.087041854826662e-43 11.65 25.56933333333329
    vertex -11.97606343760532 11.65 19.92427474476947
  endloop
endfacet
facet normal 0 1 0
  outer loop
    vertex -29.94021078970828 11.65 30.95846573979676
    vertex -35.92803487036794 11.65 19.92442113592637
    vertex -39.52084913201524 11.65 30.63204404181128
  endloop
endfacet
facet normal 0 1 0
  outer loop
    vertex -35.92800899763454 11.65 7.538998532878268
    vertex -47.904 11.65 0
    vertex -47.904 11.65 12.78466666666665
  endloop
endfacet
facet normal 0 1 0
  outer loop
    vertex -11.97601375884076 11.65 7.538974134352119
    vertex 5.08704185482666e-43 11.65 0
    vertex -11.976 11.65 0
  endloop
endfacet
facet normal 0 1 0
  outer loop
    vertex -11.97606343760532 11.65 19.92427474476947
    vertex 5.087041854826662e-43 11.65 12.78466666666665
    vertex -11.97601375884076 11.65 7.538974134352119
  endloop
endfacet
facet normal 0 1 0
  outer loop
    vertex 5.087041854826662e-43 11.65 12.78466666666665
    vertex 5.08704185482666e-43 11.65 0
    vertex -11.97601375884076 11.65 7.538974134352119
  endloop
endfacet
facet normal 0 1 0
  outer loop
    vertex -23.95215149452959 11.65 22.85791157459875
    vertex -35.92803487036794 11.65 19.92442113592637
    vertex -29.94021078970828 11.65 30.95846573979676
  endloop
endfacet
facet normal 0 1 0
  outer loop
    vertex -35.92803487036794 11.65 19.92442113592637
    vertex -47.904 11.65 25.56933333333329
    vertex -39.52084913201524 11.65 30.63204404181128
  endloop
endfacet
facet normal 0 1 0
  outer loop
    vertex -35.92803487036794 11.65 19.92442113592637
    vertex -23.95201911543925 11.65 12.52490339467659
    vertex -35.92800899763454 11.65 7.538998532878268
  endloop
endfacet
facet normal 0 1 0
  outer loop
    vertex -35.92800899763454 11.65 7.538998532878268
    vertex -23.952 11.65 0
    vertex -35.928 11.65 0
  endloop
endfacet
facet normal 0 1 0
  outer loop
    vertex 5.087041854826662e-43 11.65 25.56933333333329
    vertex 5.087041854826662e-43 11.65 12.78466666666665
    vertex -11.97606343760532 11.65 19.92427474476947
  endloop
endfacet
facet normal -0 1 0
  outer loop
    vertex -35.92800899763454 11.65 7.538998532878268
    vertex -23.95201911543925 11.65 12.52490339467659
    vertex -23.952 11.65 0
  endloop
endfacet
facet normal 0 1 0
  outer loop
    vertex -11.97601375884076 11.65 7.538974134352119
    vertex -23.95201911543925 11.65 12.52490339467659
    vertex -11.97606343760532 11.65 19.92427474476947
  endloop
endfacet
facet normal 0 1 0
  outer loop
    vertex -11.976 11.65 0
    vertex -23.952 11.65 0
    vertex -11.97601375884076 11.65 7.538974134352119
  endloop
endfacet
facet normal 0 1 0
  outer loop
    vertex -35.92803487036794 11.65 19.92442113592637
    vertex -47.904 11.65 12.78466666666665
    vertex -47.904 11.65 25.56933333333329
  endloop
endfacet
facet normal 0 1 -0
  outer loop
    vertex -23.952 11.65 0
    vertex -23.95201911543925 11.65 12.52490339467659
    vertex -11.97601375884076 11.65 7.538974134352119
  endloop
endfacet
facet normal -0 1 0
  outer loop
    vertex -11.976 11.65 38.354
    vertex 5.08704185482666e-43 11.65 38.354
    vertex -8.383298539426498 11.65 30.63182018718546
  endloop
endfacet
facet normal 0 1 0
  outer loop
    vertex -8.383298539426498 11.65 30.63182018718546
    vertex -17.96442925952717 11.65 30.95749285782456
    vertex -11.976 11.65 38.354
  endloop
endfacet
facet normal -0 1 0
  outer loop
    vertex -8.383298539426498 11.65 30.63182018718546
    vertex 5.08704185482666e-43 11.65 38.354
    vertex 5.087041854826662e-43 11.65 25.56933333333329
  endloop
endfacet
facet normal 0 1 0
  outer loop
    vertex -47.904 11.65 25.56933333333329
    vertex -47.904 11.65 38.354
    vertex -39.52084913201524 11.65 30.63204404181128
  endloop
endfacet
facet normal 0 1 0
  outer loop
    vertex -35.928 11.65 38.354
    vertex -29.94021078970828 11.65 30.95846573979676
    vertex -39.52084913201524 11.65 30.63204404181128
  endloop
endfacet
facet normal 0 1 -0
  outer loop
    vertex -29.94021078970828 11.65 30.95846573979676
    vertex -35.928 11.65 38.354
    vertex -23.952 11.65 38.354
  endloop
endfacet
facet normal 0 1 -0
  outer loop
    vertex -39.52084913201524 11.65 30.63204404181128
    vertex -47.904 11.65 38.354
    vertex -35.928 11.65 38.354
  endloop
endfacet
facet normal 0 1 0
  outer loop
    vertex -23.95201911543925 11.65 12.52490339467659
    vertex -35.92803487036794 11.65 19.92442113592637
    vertex -23.95215149452959 11.65 22.85791157459875
  endloop
endfacet
facet normal -0 1 0
  outer loop
    vertex -23.952 11.65 38.354
    vertex -11.976 11.65 38.354
    vertex -17.96442925952717 11.65 30.95749285782456
  endloop
endfacet
facet normal 0 1 0
  outer loop
    vertex -23.95215149452959 11.65 22.85791157459875
    vertex -11.97606343760532 11.65 19.92427474476947
    vertex -23.95201911543925 11.65 12.52490339467659
  endloop
endfacet
facet normal 0.920667 0.390348 -1.85954e-16
  outer loop
    vertex -51.25750000000001 19.5595 30.89627777777775
    vertex -54.611 27.469 38.354
    vertex -51.25750000000001 19.5595 38.354
  endloop
endfacet
facet normal 0.920667 0.390348 -0
  outer loop
    vertex -51.25750000000001 19.5595 19.17699999999997
    vertex -54.611 27.469 25.56933333333329
    vertex -51.25750000000001 19.5595 30.89627777777775
  endloop
endfacet
facet normal 0.920667 0.390348 -5.11686e-16
  outer loop
    vertex -54.611 27.469 25.56933333333329
    vertex -54.611 27.469 38.354
    vertex -51.25750000000001 19.5595 30.89627777777775
  endloop
endfacet
facet normal 0.920667 0.390348 -6.91222e-16
  outer loop
    vertex -51.25750000000001 19.5595 0
    vertex -54.611 27.469 0
    vertex -51.2575 19.5595 7.457722222222212
  endloop
endfacet
facet normal 0.920667 0.390348 0
  outer loop
    vertex -51.25750000000001 19.5595 30.89627777777775
    vertex -47.904 11.65 25.56933333333329
    vertex -51.25750000000001 19.5595 19.17699999999997
  endloop
endfacet
facet normal 0.920667 0.390348 5.58203e-16
  outer loop
    vertex -51.25750000000001 19.5595 19.17699999999997
    vertex -47.904 11.65 12.78466666666665
    vertex -51.2575 19.5595 7.457722222222212
  endloop
endfacet
facet normal 0.920667 0.390348 5.58203e-16
  outer loop
    vertex -51.2575 19.5595 7.457722222222212
    vertex -54.611 27.469 12.78466666666665
    vertex -51.25750000000001 19.5595 19.17699999999997
  endloop
endfacet
facet normal 0.920667 0.390348 5.17541e-16
  outer loop
    vertex -51.2575 19.5595 7.457722222222212
    vertex -54.611 27.469 0
    vertex -54.611 27.469 12.78466666666665
  endloop
endfacet
facet normal 0.920667 0.390348 0
  outer loop
    vertex -47.904 11.65 25.56933333333329
    vertex -47.904 11.65 12.78466666666665
    vertex -51.25750000000001 19.5595 19.17699999999997
  endloop
endfacet
facet normal 0.920667 0.390348 -0
  outer loop
    vertex -54.611 27.469 12.78466666666665
    vertex -54.611 27.469 25.56933333333329
    vertex -51.25750000000001 19.5595 19.17699999999997
  endloop
endfacet
facet normal 0.920667 0.390348 -1.85954e-16
  outer loop
    vertex -51.25750000000001 19.5595 38.354
    vertex -47.904 11.65 38.354
    vertex -51.25750000000001 19.5595 30.89627777777775
  endloop
endfacet
facet normal 0.920667 0.390348 0
  outer loop
    vertex -51.25750000000001 19.5595 30.89627777777775
    vertex -47.904 11.65 38.354
    vertex -47.904 11.65 25.56933333333329
  endloop
endfacet
facet normal 0.920667 0.390348 0
  outer loop
    vertex -47.904 11.65 12.78466666666665
    vertex -47.904 11.65 0
    vertex -51.2575 19.5595 7.457722222222212
  endloop
endfacet
facet normal 0.920667 0.390348 -6.91222e-16
  outer loop
    vertex -51.2575 19.5595 7.457722222222212
    vertex -47.904 11.65 0
    vertex -51.25750000000001 19.5595 0
  endloop
endfacet
facet normal 0 1 -0
  outer loop
    vertex -79.06999759556041 27.469 30.71863815581046
    vertex -86.983 27.469 38.354
    vertex -76.19233333333337 27.469 38.354
  endloop
endfacet
facet normal 0 1 0
  outer loop
    vertex -86.983 27.469 25.56933333333329
    vertex -86.983 27.469 38.354
    vertex -79.06999759556041 27.469 30.71863815581046
  endloop
endfacet
facet normal 0 1 0
  outer loop
    vertex -76.19233333333337 27.469 0
    vertex -86.983 27.469 0
    vertex -76.57144334042783 27.469 9.767153408642807
  endloop
endfacet
facet normal 0 1 0
  outer loop
    vertex -76.57144334042783 27.469 9.767153408642807
    vertex -86.983 27.469 0
    vertex -86.983 27.469 12.78466666666665
  endloop
endfacet
facet normal -0 1 0
  outer loop
    vertex -79.06999759556041 27.469 30.71863815581046
    vertex -76.19233333333337 27.469 38.354
    vertex -67.65207289199385 27.469 30.06169579390094
  endloop
endfacet
facet normal -0 1 0
  outer loop
    vertex -76.19233333333337 27.469 38.354
    vertex -65.4016666666667 27.469 38.354
    vertex -67.65207289199385 27.469 30.06169579390094
  endloop
endfacet
facet normal 0 1 0
  outer loop
    vertex -65.59181403466705 27.469 6.736354694403688
    vertex -76.19233333333337 27.469 0
    vertex -76.57144334042783 27.469 9.767153408642807
  endloop
endfacet
facet normal 0 1 0
  outer loop
    vertex -65.59181403466705 27.469 6.736354694403688
    vertex -65.4016666666667 27.469 0
    vertex -76.19233333333337 27.469 0
  endloop
endfacet
facet normal 0 1 0
  outer loop
    vertex -54.611 27.469 38.354
    vertex -67.65207289199385 27.469 30.06169579390094
    vertex -65.4016666666667 27.469 38.354
  endloop
endfacet
facet normal 0 1 -0
  outer loop
    vertex -54.611 27.469 25.56933333333329
    vertex -67.65207289199385 27.469 30.06169579390094
    vertex -54.611 27.469 38.354
  endloop
endfacet
facet normal 0 1 0
  outer loop
    vertex -54.611 27.469 25.56933333333329
    vertex -54.611 27.469 12.78466666666665
    vertex -66.16344086757444 27.469 17.86630809111267
  endloop
endfacet
facet normal 0 1 -0
  outer loop
    vertex -65.4016666666667 27.469 0
    vertex -65.59181403466705 27.469 6.736354694403688
    vertex -54.611 27.469 0
  endloop
endfacet
facet normal 0 1 0
  outer loop
    vertex -54.611 27.469 0
    vertex -65.59181403466705 27.469 6.736354694403688
    vertex -54.611 27.469 12.78466666666665
  endloop
endfacet
facet normal 0 1 0
  outer loop
    vertex -66.16344086757444 27.469 17.86630809111267
    vertex -76.57144334042783 27.469 9.767153408642807
    vertex -77.5150717808221 27.469 21.21559097705013
  endloop
endfacet
facet normal -0 1 0
  outer loop
    vertex -76.57144334042783 27.469 9.767153408642807
    vertex -66.16344086757444 27.469 17.86630809111267
    vertex -65.59181403466705 27.469 6.736354694403688
  endloop
endfacet
facet normal 0 1 0
  outer loop
    vertex -77.5150717808221 27.469 21.21559097705013
    vertex -76.57144334042783 27.469 9.767153408642807
    vertex -86.983 27.469 12.78466666666665
  endloop
endfacet
facet normal 0 1 0
  outer loop
    vertex -86.983 27.469 12.78466666666665
    vertex -86.983 27.469 25.56933333333329
    vertex -77.5150717808221 27.469 21.21559097705013
  endloop
endfacet
facet normal 0 1 -0
  outer loop
    vertex -65.59181403466705 27.469 6.736354694403688
    vertex -66.16344086757444 27.469 17.86630809111267
    vertex -54.611 27.469 12.78466666666665
  endloop
endfacet
facet normal 0 1 0
  outer loop
    vertex -67.65207289199385 27.469 30.06169579390094
    vertex -66.16344086757444 27.469 17.86630809111267
    vertex -77.5150717808221 27.469 21.21559097705013
  endloop
endfacet
facet normal 0 1 -0
  outer loop
    vertex -77.5150717808221 27.469 21.21559097705013
    vertex -79.06999759556041 27.469 30.71863815581046
    vertex -67.65207289199385 27.469 30.06169579390094
  endloop
endfacet
facet normal -0 1 0
  outer loop
    vertex -86.983 27.469 25.56933333333329
    vertex -79.06999759556041 27.469 30.71863815581046
    vertex -77.5150717808221 27.469 21.21559097705013
  endloop
endfacet
facet normal 0 1 0
  outer loop
    vertex -54.611 27.469 25.56933333333329
    vertex -66.16344086757444 27.469 17.86630809111267
    vertex -67.65207289199385 27.469 30.06169579390094
  endloop
endfacet
facet normal -0.840268 0.542172 -2.40916e-16
  outer loop
    vertex -92.0865 19.55949999999999 28.76549999999997
    vertex -97.19 11.65 38.354
    vertex -92.08650000000002 19.55949999999998 38.354
  endloop
endfacet
facet normal -0.840268 0.542172 0
  outer loop
    vertex -97.19 11.65 25.56933333333329
    vertex -97.19 11.65 38.354
    vertex -92.0865 19.55949999999999 28.76549999999997
  endloop
endfacet
facet normal -0.840268 0.542172 -2.40916e-16
  outer loop
    vertex -92.08650000000002 19.55949999999998 38.354
    vertex -86.983 27.469 38.354
    vertex -92.0865 19.55949999999999 28.76549999999997
  endloop
endfacet
facet normal -0.840268 0.542172 0
  outer loop
    vertex -92.0865 19.55949999999999 28.76549999999997
    vertex -86.983 27.469 38.354
    vertex -86.983 27.469 25.56933333333329
  endloop
endfacet
facet normal -0.840268 0.542172 2.40916e-16
  outer loop
    vertex -92.08650000000002 19.55949999999998 0
    vertex -97.19 11.65 0
    vertex -92.0865 19.55949999999999 9.588499999999987
  endloop
endfacet
facet normal -0.840268 0.542172 0
  outer loop
    vertex -92.0865 19.55949999999999 9.588499999999987
    vertex -97.19 11.65 0
    vertex -97.19 11.65 12.78466666666665
  endloop
endfacet
facet normal -0.840268 0.542172 2.40916e-16
  outer loop
    vertex -92.0865 19.55949999999999 9.588499999999987
    vertex -86.983 27.469 0
    vertex -92.08650000000002 19.55949999999998 0
  endloop
endfacet
facet normal -0.840268 0.542172 0
  outer loop
    vertex -86.983 27.469 12.78466666666665
    vertex -86.983 27.469 0
    vertex -92.0865 19.55949999999999 9.588499999999987
  endloop
endfacet
facet normal -0.840268 0.542172 0
  outer loop
    vertex -86.983 27.469 25.56933333333329
    vertex -86.983 27.469 12.78466666666665
    vertex -92.0865 19.5595 19.17699999999997
  endloop
endfacet
facet normal -0.840268 0.542172 0
  outer loop
    vertex -97.19 11.65 12.78466666666665
    vertex -97.19 11.65 25.56933333333329
    vertex -92.0865 19.5595 19.17699999999997
  endloop
endfacet
facet normal -0.840268 0.542172 3.93621e-16
  outer loop
    vertex -86.983 27.469 25.56933333333329
    vertex -92.0865 19.5595 19.17699999999997
    vertex -92.0865 19.55949999999999 28.76549999999997
  endloop
endfacet
facet normal -0.840268 0.542172 4.01769e-16
  outer loop
    vertex -92.0865 19.55949999999999 28.76549999999997
    vertex -92.0865 19.5595 19.17699999999997
    vertex -97.19 11.65 25.56933333333329
  endloop
endfacet
facet normal -0.840268 0.542172 -4.01769e-16
  outer loop
    vertex -92.0865 19.55949999999999 9.588499999999987
    vertex -92.0865 19.5595 19.17699999999997
    vertex -86.983 27.469 12.78466666666665
  endloop
endfacet
facet normal -0.840268 0.542172 -4.72345e-16
  outer loop
    vertex -97.19 11.65 12.78466666666665
    vertex -92.0865 19.5595 19.17699999999997
    vertex -92.0865 19.55949999999999 9.588499999999987
  endloop
endfacet
facet normal 0.920605 0.390496 1.86025e-16
  outer loop
    vertex -100.545 19.5595 30.89627777777775
    vertex -103.9 27.469 38.354
    vertex -100.545 19.5595 38.354
  endloop
endfacet
facet normal 0.920605 0.390496 -0
  outer loop
    vertex -100.545 19.5595 19.17699999999997
    vertex -103.9 27.469 25.56933333333329
    vertex -100.545 19.5595 30.89627777777775
  endloop
endfacet
facet normal 0.920605 0.390496 -0
  outer loop
    vertex -103.9 27.469 25.56933333333329
    vertex -103.9 27.469 38.354
    vertex -100.545 19.5595 30.89627777777775
  endloop
endfacet
facet normal 0.920605 0.390496 -1.86025e-16
  outer loop
    vertex -100.545 19.5595 0
    vertex -103.9 27.469 0
    vertex -100.545 19.5595 7.457722222222212
  endloop
endfacet
facet normal 0.920605 0.390496 0
  outer loop
    vertex -100.545 19.5595 30.89627777777775
    vertex -97.19 11.65 25.56933333333329
    vertex -100.545 19.5595 19.17699999999997
  endloop
endfacet
facet normal 0.920605 0.390496 0
  outer loop
    vertex -100.545 19.5595 19.17699999999997
    vertex -97.19 11.65 12.78466666666665
    vertex -100.545 19.5595 7.457722222222212
  endloop
endfacet
facet normal 0.920605 0.390496 -0
  outer loop
    vertex -100.545 19.5595 7.457722222222212
    vertex -103.9 27.469 12.78466666666665
    vertex -100.545 19.5595 19.17699999999997
  endloop
endfacet
facet normal 0.920605 0.390496 0
  outer loop
    vertex -100.545 19.5595 7.457722222222212
    vertex -103.9 27.469 0
    vertex -103.9 27.469 12.78466666666665
  endloop
endfacet
facet normal 0.920605 0.390496 0
  outer loop
    vertex -97.19 11.65 25.56933333333329
    vertex -97.19 11.65 12.78466666666665
    vertex -100.545 19.5595 19.17699999999997
  endloop
endfacet
facet normal 0.920605 0.390496 -0
  outer loop
    vertex -103.9 27.469 12.78466666666665
    vertex -103.9 27.469 25.56933333333329
    vertex -100.545 19.5595 19.17699999999997
  endloop
endfacet
facet normal 0.920605 0.390496 1.86025e-16
  outer loop
    vertex -100.545 19.5595 38.354
    vertex -97.19 11.65 38.354
    vertex -100.545 19.5595 30.89627777777775
  endloop
endfacet
facet normal 0.920605 0.390496 0
  outer loop
    vertex -100.545 19.5595 30.89627777777775
    vertex -97.19 11.65 38.354
    vertex -97.19 11.65 25.56933333333329
  endloop
endfacet
facet normal 0.920605 0.390496 0
  outer loop
    vertex -97.19 11.65 12.78466666666665
    vertex -97.19 11.65 0
    vertex -100.545 19.5595 7.457722222222212
  endloop
endfacet
facet normal 0.920605 0.390496 -1.86025e-16
  outer loop
    vertex -100.545 19.5595 7.457722222222212
    vertex -97.19 11.65 0
    vertex -100.545 19.5595 0
  endloop
endfacet
facet normal 0 1 -0
  outer loop
    vertex -127.0616579722155 27.469 18.99176163447478
    vertex -130.406910860501 27.469 29.60935649048183
    vertex -121.2956721438576 27.469 28.68887005140729
  endloop
endfacet
facet normal 0 1 0
  outer loop
    vertex -127.0616579722155 27.469 18.99176163447478
    vertex -138.02 27.469 25.56933333333329
    vertex -130.406910860501 27.469 29.60935649048183
  endloop
endfacet
facet normal 0 1 -0
  outer loop
    vertex -114.6276765490073 27.469 20.35341717796876
    vertex -121.2956721438576 27.469 28.68887005140729
    vertex -111.7993364052396 27.469 30.26392411254186
  endloop
endfacet
facet normal 0 1 0
  outer loop
    vertex -103.9 27.469 25.56933333333329
    vertex -114.6276765490073 27.469 20.35341717796876
    vertex -111.7993364052396 27.469 30.26392411254186
  endloop
endfacet
facet normal 0 1 0
  outer loop
    vertex -114.6276765490073 27.469 20.35341717796876
    vertex -103.9 27.469 12.78466666666665
    vertex -117.2586763901897 27.469 8.600754578112856
  endloop
endfacet
facet normal 0 1 0
  outer loop
    vertex -129.4014002101048 27.469 8.075436567679811
    vertex -127.0616579722155 27.469 18.99176163447478
    vertex -117.2586763901897 27.469 8.600754578112856
  endloop
endfacet
facet normal 0 1 0
  outer loop
    vertex -114.6276765490073 27.469 20.35341717796876
    vertex -117.2586763901897 27.469 8.600754578112856
    vertex -127.0616579722155 27.469 18.99176163447478
  endloop
endfacet
facet normal -0 1 0
  outer loop
    vertex -114.6276765490073 27.469 20.35341717796876
    vertex -103.9 27.469 25.56933333333329
    vertex -103.9 27.469 12.78466666666665
  endloop
endfacet
facet normal 0 1 -0
  outer loop
    vertex -129.4014002101048 27.469 8.075436567679811
    vertex -138.02 27.469 12.78466666666665
    vertex -127.0616579722155 27.469 18.99176163447478
  endloop
endfacet
facet normal -0 1 0
  outer loop
    vertex -129.4014002101048 27.469 8.075436567679811
    vertex -117.2586763901897 27.469 8.600754578112856
    vertex -126.6466666666666 27.469 0
  endloop
endfacet
facet normal 0 1 0
  outer loop
    vertex -117.2586763901897 27.469 8.600754578112856
    vertex -103.9 27.469 0
    vertex -115.2733333333333 27.469 0
  endloop
endfacet
facet normal 0 1 0
  outer loop
    vertex -126.6466666666666 27.469 0
    vertex -138.02 27.469 0
    vertex -129.4014002101048 27.469 8.075436567679811
  endloop
endfacet
facet normal 0 1 0
  outer loop
    vertex -103.9 27.469 12.78466666666665
    vertex -103.9 27.469 0
    vertex -117.2586763901897 27.469 8.600754578112856
  endloop
endfacet
facet normal 0 1 0
  outer loop
    vertex -114.6276765490073 27.469 20.35341717796876
    vertex -127.0616579722155 27.469 18.99176163447478
    vertex -121.2956721438576 27.469 28.68887005140729
  endloop
endfacet
facet normal 0 1 0
  outer loop
    vertex -138.02 27.469 12.78466666666665
    vertex -138.02 27.469 25.56933333333329
    vertex -127.0616579722155 27.469 18.99176163447478
  endloop
endfacet
facet normal 0 1 0
  outer loop
    vertex -111.7993364052396 27.469 30.26392411254186
    vertex -121.2956721438576 27.469 28.68887005140729
    vertex -115.2733333333333 27.469 38.354
  endloop
endfacet
facet normal -0 1 0
  outer loop
    vertex -126.6466666666666 27.469 38.354
    vertex -115.2733333333333 27.469 38.354
    vertex -121.2956721438576 27.469 28.68887005140729
  endloop
endfacet
facet normal -0 1 0
  outer loop
    vertex -111.7993364052396 27.469 30.26392411254186
    vertex -103.9 27.469 38.354
    vertex -103.9 27.469 25.56933333333329
  endloop
endfacet
facet normal -0 1 0
  outer loop
    vertex -115.2733333333333 27.469 38.354
    vertex -103.9 27.469 38.354
    vertex -111.7993364052396 27.469 30.26392411254186
  endloop
endfacet
facet normal 0 1 0
  outer loop
    vertex -117.2586763901897 27.469 8.600754578112856
    vertex -115.2733333333333 27.469 0
    vertex -126.6466666666666 27.469 0
  endloop
endfacet
facet normal 0 1 -0
  outer loop
    vertex -130.406910860501 27.469 29.60935649048183
    vertex -138.02 27.469 38.354
    vertex -126.6466666666666 27.469 38.354
  endloop
endfacet
facet normal 0 1 0
  outer loop
    vertex -126.6466666666666 27.469 38.354
    vertex -121.2956721438576 27.469 28.68887005140729
    vertex -130.406910860501 27.469 29.60935649048183
  endloop
endfacet
facet normal 0 1 0
  outer loop
    vertex -138.02 27.469 25.56933333333329
    vertex -138.02 27.469 38.354
    vertex -130.406910860501 27.469 29.60935649048183
  endloop
endfacet
facet normal 0 1 0
  outer loop
    vertex -129.4014002101048 27.469 8.075436567679811
    vertex -138.02 27.469 0
    vertex -138.02 27.469 12.78466666666665
  endloop
endfacet
facet normal -0.888727 0.458437 6.55171e-16
  outer loop
    vertex -142.1 19.55949999999999 30.89627777777776
    vertex -146.18 11.65 38.354
    vertex -142.1 19.55949999999998 38.354
  endloop
endfacet
facet normal -0.888727 0.458437 2.77951e-16
  outer loop
    vertex -142.1 19.5595 19.17699999999997
    vertex -146.18 11.65 25.56933333333329
    vertex -142.1 19.55949999999999 30.89627777777776
  endloop
endfacet
facet normal -0.888727 0.458437 0
  outer loop
    vertex -146.18 11.65 25.56933333333329
    vertex -146.18 11.65 38.354
    vertex -142.1 19.55949999999999 30.89627777777776
  endloop
endfacet
facet normal -0.888727 0.458437 -6.55171e-16
  outer loop
    vertex -142.1 19.55949999999998 0
    vertex -146.18 11.65 0
    vertex -142.1 19.55949999999999 7.457722222222213
  endloop
endfacet
facet normal -0.888727 0.458437 2.77951e-16
  outer loop
    vertex -142.1 19.55949999999999 30.89627777777776
    vertex -138.02 27.469 25.56933333333329
    vertex -142.1 19.5595 19.17699999999997
  endloop
endfacet
facet normal -0.888727 0.458437 -2.77951e-16
  outer loop
    vertex -142.1 19.5595 19.17699999999997
    vertex -138.02 27.469 12.78466666666665
    vertex -142.1 19.55949999999999 7.457722222222213
  endloop
endfacet
facet normal -0.888727 0.458437 -2.77951e-16
  outer loop
    vertex -142.1 19.55949999999999 7.457722222222213
    vertex -146.18 11.65 12.78466666666665
    vertex -142.1 19.5595 19.17699999999997
  endloop
endfacet
facet normal -0.888727 0.458437 0
  outer loop
    vertex -142.1 19.55949999999999 7.457722222222213
    vertex -146.18 11.65 0
    vertex -146.18 11.65 12.78466666666665
  endloop
endfacet
facet normal -0.888727 0.458437 6.55171e-16
  outer loop
    vertex -142.1 19.55949999999998 38.354
    vertex -138.02 27.469 38.354
    vertex -142.1 19.55949999999999 30.89627777777776
  endloop
endfacet
facet normal -0.888727 0.458437 0
  outer loop
    vertex -142.1 19.55949999999999 30.89627777777776
    vertex -138.02 27.469 38.354
    vertex -138.02 27.469 25.56933333333329
  endloop
endfacet
facet normal -0.888727 0.458437 0
  outer loop
    vertex -146.18 11.65 12.78466666666665
    vertex -146.18 11.65 25.56933333333329
    vertex -142.1 19.5595 19.17699999999997
  endloop
endfacet
facet normal -0.888727 0.458437 0
  outer loop
    vertex -138.02 27.469 25.56933333333329
    vertex -138.02 27.469 12.78466666666665
    vertex -142.1 19.5595 19.17699999999997
  endloop
endfacet
facet normal -0.888727 0.458437 0
  outer loop
    vertex -138.02 27.469 12.78466666666665
    vertex -138.02 27.469 0
    vertex -142.1 19.55949999999999 7.457722222222213
  endloop
endfacet
facet normal -0.888727 0.458437 -6.55171e-16
  outer loop
    vertex -142.1 19.55949999999999 7.457722222222213
    vertex -138.02 27.469 0
    vertex -142.1 19.55949999999998 0
  endloop
endfacet
facet normal 0.817366 0.576119 1.09781e-15
  outer loop
    vertex -151.755 19.5595 30.89627777777775
    vertex -157.33 27.469 38.354
    vertex -151.755 19.55949999999999 38.354
  endloop
endfacet
facet normal 0.817366 0.576119 1.81709e-15
  outer loop
    vertex -157.33 27.469 25.56933333333329
    vertex -157.33 27.469 38.354
    vertex -151.755 19.5595 30.89627777777775
  endloop
endfacet
facet normal 0.817366 0.576119 1.09781e-15
  outer loop
    vertex -151.755 19.55949999999999 38.354
    vertex -146.18 11.65 38.354
    vertex -151.755 19.5595 30.89627777777775
  endloop
endfacet
facet normal 0.817366 0.576119 0
  outer loop
    vertex -151.755 19.5595 30.89627777777775
    vertex -146.18 11.65 38.354
    vertex -146.18 11.65 25.56933333333329
  endloop
endfacet
facet normal 0.817366 0.576119 -1.09781e-15
  outer loop
    vertex -151.755 19.55949999999999 0
    vertex -157.33 27.469 0
    vertex -151.755 19.5595 7.457722222222212
  endloop
endfacet
facet normal 0.817366 0.576119 -1.83788e-15
  outer loop
    vertex -151.755 19.5595 7.457722222222212
    vertex -157.33 27.469 0
    vertex -157.33 27.469 12.78466666666665
  endloop
endfacet
facet normal 0.817366 0.576119 -1.09781e-15
  outer loop
    vertex -151.755 19.5595 7.457722222222212
    vertex -146.18 11.65 0
    vertex -151.755 19.55949999999999 0
  endloop
endfacet
facet normal 0.817366 0.576119 0
  outer loop
    vertex -146.18 11.65 12.78466666666665
    vertex -146.18 11.65 0
    vertex -151.755 19.5595 7.457722222222212
  endloop
endfacet
facet normal 0.817366 0.576119 0
  outer loop
    vertex -151.755 19.5595 19.17699999999997
    vertex -146.18 11.65 25.56933333333329
    vertex -146.18 11.65 12.78466666666665
  endloop
endfacet
facet normal 0.817366 0.576119 0
  outer loop
    vertex -151.755 19.5595 19.17699999999997
    vertex -157.33 27.469 12.78466666666665
    vertex -157.33 27.469 25.56933333333329
  endloop
endfacet
facet normal 0.817366 0.576119 0
  outer loop
    vertex -146.18 11.65 25.56933333333329
    vertex -151.755 19.5595 19.17699999999997
    vertex -151.755 19.5595 30.89627777777775
  endloop
endfacet
facet normal 0.817366 0.576119 0
  outer loop
    vertex -151.755 19.5595 30.89627777777775
    vertex -151.755 19.5595 19.17699999999997
    vertex -157.33 27.469 25.56933333333329
  endloop
endfacet
facet normal 0.817366 0.576119 -0
  outer loop
    vertex -151.755 19.5595 7.457722222222212
    vertex -151.755 19.5595 19.17699999999997
    vertex -146.18 11.65 12.78466666666665
  endloop
endfacet
facet normal 0.817366 0.576119 0
  outer loop
    vertex -157.33 27.469 12.78466666666665
    vertex -151.755 19.5595 19.17699999999997
    vertex -151.755 19.5595 7.457722222222212
  endloop
endfacet
facet normal 0 1 -0
  outer loop
    vertex -172.06 27.469 19.17699999999997
    vertex -177.04856 27.469 30.35932177777776
    vertex -167.5428 27.469 30.34227555555554
  endloop
endfacet
facet normal 0 1 0
  outer loop
    vertex -172.06 27.469 19.17699999999997
    vertex -186.79 27.469 25.56933333333329
    vertex -177.04856 27.469 30.35932177777776
  endloop
endfacet
facet normal 0 1 0
  outer loop
    vertex -172.0599999999999 27.469 38.354
    vertex -167.5428 27.469 30.34227555555554
    vertex -177.04856 27.469 30.35932177777776
  endloop
endfacet
facet normal 0 1 0
  outer loop
    vertex -167.5428 27.469 30.34227555555554
    vertex -157.33 27.469 25.56933333333329
    vertex -172.06 27.469 19.17699999999997
  endloop
endfacet
facet normal 0 1 0
  outer loop
    vertex -167.5428 27.469 8.011724444444434
    vertex -177.04856 27.469 7.99467822222221
    vertex -172.06 27.469 19.17699999999997
  endloop
endfacet
facet normal 0 1 -0
  outer loop
    vertex -177.04856 27.469 7.99467822222221
    vertex -186.79 27.469 12.78466666666665
    vertex -172.06 27.469 19.17699999999997
  endloop
endfacet
facet normal -0 1 0
  outer loop
    vertex -177.04856 27.469 7.99467822222221
    vertex -167.5428 27.469 8.011724444444434
    vertex -172.0599999999999 27.469 0
  endloop
endfacet
facet normal 0 1 0
  outer loop
    vertex -172.06 27.469 19.17699999999997
    vertex -157.33 27.469 12.78466666666665
    vertex -167.5428 27.469 8.011724444444434
  endloop
endfacet
facet normal 0 1 -0
  outer loop
    vertex -177.04856 27.469 30.35932177777776
    vertex -186.79 27.469 38.354
    vertex -172.0599999999999 27.469 38.354
  endloop
endfacet
facet normal 0 1 0
  outer loop
    vertex -157.33 27.469 12.78466666666665
    vertex -157.33 27.469 0
    vertex -167.5428 27.469 8.011724444444434
  endloop
endfacet
facet normal 0 1 0
  outer loop
    vertex -186.79 27.469 12.78466666666665
    vertex -186.79 27.469 25.56933333333329
    vertex -172.06 27.469 19.17699999999997
  endloop
endfacet
facet normal 0 1 0
  outer loop
    vertex -157.33 27.469 25.56933333333329
    vertex -157.33 27.469 12.78466666666665
    vertex -172.06 27.469 19.17699999999997
  endloop
endfacet
facet normal 0 1 0
  outer loop
    vertex -186.79 27.469 25.56933333333329
    vertex -186.79 27.469 38.354
    vertex -177.04856 27.469 30.35932177777776
  endloop
endfacet
facet normal 0 1 0
  outer loop
    vertex -172.0599999999999 27.469 0
    vertex -186.79 27.469 0
    vertex -177.04856 27.469 7.99467822222221
  endloop
endfacet
facet normal 0 1 0
  outer loop
    vertex -167.5428 27.469 8.011724444444434
    vertex -157.33 27.469 0
    vertex -172.0599999999999 27.469 0
  endloop
endfacet
facet normal 0 1 0
  outer loop
    vertex -177.04856 27.469 7.99467822222221
    vertex -186.79 27.469 0
    vertex -186.79 27.469 12.78466666666665
  endloop
endfacet
facet normal -0 1 0
  outer loop
    vertex -172.0599999999999 27.469 38.354
    vertex -157.33 27.469 38.354
    vertex -167.5428 27.469 30.34227555555554
  endloop
endfacet
facet normal -0 1 0
  outer loop
    vertex -167.5428 27.469 30.34227555555554
    vertex -157.33 27.469 38.354
    vertex -157.33 27.469 25.56933333333329
  endloop
endfacet
facet normal -1 0 0
  outer loop
    vertex -186.79 12.8045 19.17699999999997
    vertex -186.79 7.838122666666678 30.35932177777776
    vertex -186.79 17.30161333333334 30.34227555555553
  endloop
endfacet
facet normal -1 0 0
  outer loop
    vertex -186.79 12.8045 19.17699999999997
    vertex -186.79 -1.86 25.56933333333329
    vertex -186.79 7.838122666666678 30.35932177777776
  endloop
endfacet
facet normal -1 0 -0
  outer loop
    vertex -186.79 12.80450000000004 38.354
    vertex -186.79 17.30161333333334 30.34227555555553
    vertex -186.79 7.838122666666678 30.35932177777776
  endloop
endfacet
facet normal -1 0 -0
  outer loop
    vertex -186.79 17.30161333333334 30.34227555555553
    vertex -186.79 27.469 25.56933333333329
    vertex -186.79 12.8045 19.17699999999997
  endloop
endfacet
facet normal -1 -0 0
  outer loop
    vertex -186.79 17.30161333333334 8.011724444444431
    vertex -186.79 7.838122666666678 7.99467822222221
    vertex -186.79 12.8045 19.17699999999997
  endloop
endfacet
facet normal -1 0 0
  outer loop
    vertex -186.79 7.838122666666678 7.99467822222221
    vertex -186.79 -1.86 12.78466666666665
    vertex -186.79 12.8045 19.17699999999997
  endloop
endfacet
facet normal -1 0 0
  outer loop
    vertex -186.79 7.838122666666678 7.99467822222221
    vertex -186.79 17.30161333333334 8.011724444444431
    vertex -186.79 12.80450000000004 0
  endloop
endfacet
facet normal -1 0 0
  outer loop
    vertex -186.79 12.8045 19.17699999999997
    vertex -186.79 27.469 12.78466666666665
    vertex -186.79 17.30161333333334 8.011724444444431
  endloop
endfacet
facet normal -1 0 0
  outer loop
    vertex -186.79 7.838122666666678 30.35932177777776
    vertex -186.79 -1.86 38.354
    vertex -186.79 12.80450000000004 38.354
  endloop
endfacet
facet normal -1 0 -0
  outer loop
    vertex -186.79 27.469 12.78466666666665
    vertex -186.79 27.469 0
    vertex -186.79 17.30161333333334 8.011724444444431
  endloop
endfacet
facet normal -1 0 0
  outer loop
    vertex -186.79 -1.86 12.78466666666665
    vertex -186.79 -1.86 25.56933333333329
    vertex -186.79 12.8045 19.17699999999997
  endloop
endfacet
facet normal -1 0 -0
  outer loop
    vertex -186.79 27.469 25.56933333333329
    vertex -186.79 27.469 12.78466666666665
    vertex -186.79 12.8045 19.17699999999997
  endloop
endfacet
facet normal -1 0 0
  outer loop
    vertex -186.79 -1.86 25.56933333333329
    vertex -186.79 -1.86 38.354
    vertex -186.79 7.838122666666678 30.35932177777776
  endloop
endfacet
facet normal -1 0 0
  outer loop
    vertex -186.79 12.80450000000004 0
    vertex -186.79 -1.86 0
    vertex -186.79 7.838122666666678 7.99467822222221
  endloop
endfacet
facet normal -1 0 -0
  outer loop
    vertex -186.79 17.30161333333334 8.011724444444431
    vertex -186.79 27.469 0
    vertex -186.79 12.80450000000004 0
  endloop
endfacet
facet normal -1 -0 0
  outer loop
    vertex -186.79 7.838122666666678 7.99467822222221
    vertex -186.79 -1.86 0
    vertex -186.79 -1.86 12.78466666666665
  endloop
endfacet
facet normal -1 0 0
  outer loop
    vertex -186.79 12.80450000000004 38.354
    vertex -186.79 27.469 38.354
    vertex -186.79 17.30161333333334 30.34227555555553
  endloop
endfacet
facet normal -1 0 0
  outer loop
    vertex -186.79 17.30161333333334 30.34227555555553
    vertex -186.79 27.469 38.354
    vertex -186.79 27.469 25.56933333333329
  endloop
endfacet
facet normal -0 -1 0
  outer loop
    vertex -47.904 -1.86 12.78466666666665
    vertex -57.87587500526533 -1.86 23.69728109922008
    vertex -57.37273282874395 -1.86 10.13320805589255
  endloop
endfacet
facet normal 0 -1 0
  outer loop
    vertex -57.87587500526533 -1.86 23.69728109922008
    vertex -47.904 -1.86 38.354
    vertex -63.33577777777766 -1.86 38.354
  endloop
endfacet
facet normal 0 -1 0
  outer loop
    vertex -69.44928160159186 -1.86 13.9324849160889
    vertex -57.37273282874395 -1.86 10.13320805589255
    vertex -57.87587500526533 -1.86 23.69728109922008
  endloop
endfacet
facet normal -0 -1 0
  outer loop
    vertex -47.904 -1.86 25.56933333333329
    vertex -47.904 -1.86 38.354
    vertex -57.87587500526533 -1.86 23.69728109922008
  endloop
endfacet
facet normal 0 -1 0
  outer loop
    vertex -47.904 -1.86 12.78466666666665
    vertex -47.904 -1.86 25.56933333333329
    vertex -57.87587500526533 -1.86 23.69728109922008
  endloop
endfacet
facet normal -2.32429e-17 -1 8.6826e-19
  outer loop
    vertex -177.3354127531823 -1.86 10.1437262125013
    vertex -176.8288103932885 -1.86 23.70520611051052
    vertex -186.79 -1.86 12.78466666666665
  endloop
endfacet
facet normal 0 -1 -0
  outer loop
    vertex -176.8288103932885 -1.86 23.70520611051052
    vertex -177.3354127531823 -1.86 10.1437262125013
    vertex -165.2912250244329 -1.86 13.96692368190443
  endloop
endfacet
facet normal 0 -1 0
  outer loop
    vertex -69.44928160159186 -1.86 13.9324849160889
    vertex -63.33577777777766 -1.86 0
    vertex -57.37273282874395 -1.86 10.13320805589255
  endloop
endfacet
facet normal -2.2291e-17 -1 0
  outer loop
    vertex -176.8288103932885 -1.86 23.70520611051052
    vertex -186.79 -1.86 25.56933333333329
    vertex -186.79 -1.86 12.78466666666665
  endloop
endfacet
facet normal -0 -1 0
  outer loop
    vertex -171.3582222222222 -1.86 38.354
    vertex -186.79 -1.86 38.354
    vertex -176.8288103932885 -1.86 23.70520611051052
  endloop
endfacet
facet normal -0 -1 0
  outer loop
    vertex -57.87587500526533 -1.86 23.69728109922008
    vertex -71.26133282874395 -1.86 26.75327472255922
    vertex -69.44928160159186 -1.86 13.9324849160889
  endloop
endfacet
facet normal -2.55412e-17 -1 -1.7368e-17
  outer loop
    vertex -176.8288103932885 -1.86 23.70520611051052
    vertex -186.79 -1.86 38.354
    vertex -186.79 -1.86 25.56933333333329
  endloop
endfacet
facet normal 0 -1 0
  outer loop
    vertex -57.87587500526533 -1.86 23.69728109922008
    vertex -63.33577777777766 -1.86 38.354
    vertex -71.26133282874395 -1.86 26.75327472255922
  endloop
endfacet
facet normal 0 -1 0
  outer loop
    vertex -177.3354127531823 -1.86 10.1437262125013
    vertex -171.3582222222222 -1.86 0
    vertex -165.2912250244329 -1.86 13.96692368190443
  endloop
endfacet
facet normal 0 -1 -0
  outer loop
    vertex -69.44928160159186 -1.86 13.9324849160889
    vertex -78.7675555555555 -1.86 0
    vertex -63.33577777777766 -1.86 0
  endloop
endfacet
facet normal 0 -1 0
  outer loop
    vertex -165.2912250244329 -1.86 13.96692368190443
    vertex -163.4468127531823 -1.86 26.76379287916797
    vertex -176.8288103932885 -1.86 23.70520611051052
  endloop
endfacet
facet normal -0 -1 0
  outer loop
    vertex -163.4468127531823 -1.86 26.76379287916797
    vertex -171.3582222222222 -1.86 38.354
    vertex -176.8288103932885 -1.86 23.70520611051052
  endloop
endfacet
facet normal 0 -1 0
  outer loop
    vertex -78.7675555555555 -1.86 0
    vertex -69.44928160159186 -1.86 13.9324849160889
    vertex -86.48344444444442 -1.86 19.177
  endloop
endfacet
facet normal 0 -1 -0
  outer loop
    vertex -78.7675555555555 -1.86 38.354
    vertex -86.48344444444442 -1.86 19.177
    vertex -71.26133282874395 -1.86 26.75327472255922
  endloop
endfacet
facet normal 0 -1 0
  outer loop
    vertex -148.2105555555556 -1.86 19.177
    vertex -165.2912250244329 -1.86 13.96692368190443
    vertex -155.9264444444445 -1.86 0
  endloop
endfacet
facet normal 0 -1 0
  outer loop
    vertex -101.9152222222223 -1.86 19.177
    vertex -86.48344444444442 -1.86 19.177
    vertex -94.19933333333334 -1.86 38.354
  endloop
endfacet
facet normal 0 -1 0
  outer loop
    vertex -94.19933333333334 -1.86 0
    vertex -86.48344444444442 -1.86 19.177
    vertex -101.9152222222223 -1.86 19.177
  endloop
endfacet
facet normal 0 -1 -0
  outer loop
    vertex -165.2912250244329 -1.86 13.96692368190443
    vertex -171.3582222222222 -1.86 0
    vertex -155.9264444444445 -1.86 0
  endloop
endfacet
facet normal 0 -1 -0
  outer loop
    vertex -71.26133282874395 -1.86 26.75327472255922
    vertex -86.48344444444442 -1.86 19.177
    vertex -69.44928160159186 -1.86 13.9324849160889
  endloop
endfacet
facet normal 0 -1 0
  outer loop
    vertex -117.3470000000001 -1.86 19.177
    vertex -101.9152222222223 -1.86 19.177
    vertex -109.6311111111112 -1.86 38.354
  endloop
endfacet
facet normal -1.8634e-17 -1 1.7368e-17
  outer loop
    vertex -186.79 -1.86 12.78466666666665
    vertex -186.79 -1.86 0
    vertex -177.3354127531823 -1.86 10.1437262125013
  endloop
endfacet
facet normal 0 -1 -0
  outer loop
    vertex -148.2105555555556 -1.86 19.177
    vertex -155.9264444444445 -1.86 0
    vertex -140.4946666666667 -1.86 0
  endloop
endfacet
facet normal 0 -1 0
  outer loop
    vertex -148.2105555555556 -1.86 19.177
    vertex -140.4946666666667 -1.86 38.354
    vertex -155.9264444444445 -1.86 38.354
  endloop
endfacet
facet normal 0 -1 0
  outer loop
    vertex -109.6311111111112 -1.86 0
    vertex -101.9152222222223 -1.86 19.177
    vertex -117.3470000000001 -1.86 19.177
  endloop
endfacet
facet normal 0 -1 0
  outer loop
    vertex -132.7787777777779 -1.86 19.177
    vertex -117.3470000000001 -1.86 19.177
    vertex -125.062888888889 -1.86 38.354
  endloop
endfacet
facet normal 0 -1 -0
  outer loop
    vertex -132.7787777777779 -1.86 19.177
    vertex -140.4946666666667 -1.86 0
    vertex -125.062888888889 -1.86 0
  endloop
endfacet
facet normal 0 -1 0
  outer loop
    vertex -132.7787777777779 -1.86 19.177
    vertex -125.062888888889 -1.86 38.354
    vertex -140.4946666666667 -1.86 38.354
  endloop
endfacet
facet normal 0 -1 0
  outer loop
    vertex -125.062888888889 -1.86 0
    vertex -117.3470000000001 -1.86 19.177
    vertex -132.7787777777779 -1.86 19.177
  endloop
endfacet
facet normal 0 -1 0
  outer loop
    vertex -148.2105555555556 -1.86 19.177
    vertex -132.7787777777779 -1.86 19.177
    vertex -140.4946666666667 -1.86 38.354
  endloop
endfacet
facet normal 0 -1 -0
  outer loop
    vertex -117.3470000000001 -1.86 19.177
    vertex -125.062888888889 -1.86 0
    vertex -109.6311111111112 -1.86 0
  endloop
endfacet
facet normal 0 -1 0
  outer loop
    vertex -117.3470000000001 -1.86 19.177
    vertex -109.6311111111112 -1.86 38.354
    vertex -125.062888888889 -1.86 38.354
  endloop
endfacet
facet normal 0 -1 0
  outer loop
    vertex -140.4946666666667 -1.86 0
    vertex -132.7787777777779 -1.86 19.177
    vertex -148.2105555555556 -1.86 19.177
  endloop
endfacet
facet normal 0 -1 0
  outer loop
    vertex -63.33577777777766 -1.86 0
    vertex -47.904 -1.86 0
    vertex -57.37273282874395 -1.86 10.13320805589255
  endloop
endfacet
facet normal 0 -1 -0
  outer loop
    vertex -101.9152222222223 -1.86 19.177
    vertex -109.6311111111112 -1.86 0
    vertex -94.19933333333334 -1.86 0
  endloop
endfacet
facet normal 0 -1 0
  outer loop
    vertex -101.9152222222223 -1.86 19.177
    vertex -94.19933333333334 -1.86 38.354
    vertex -109.6311111111112 -1.86 38.354
  endloop
endfacet
facet normal 0 -1 0
  outer loop
    vertex -57.37273282874395 -1.86 10.13320805589255
    vertex -47.904 -1.86 0
    vertex -47.904 -1.86 12.78466666666665
  endloop
endfacet
facet normal 0 -1 -0
  outer loop
    vertex -177.3354127531823 -1.86 10.1437262125013
    vertex -186.79 -1.86 0
    vertex -171.3582222222222 -1.86 0
  endloop
endfacet
facet normal 0 -1 -0
  outer loop
    vertex -86.48344444444442 -1.86 19.177
    vertex -94.19933333333334 -1.86 0
    vertex -78.7675555555555 -1.86 0
  endloop
endfacet
facet normal 0 -1 0
  outer loop
    vertex -86.48344444444442 -1.86 19.177
    vertex -78.7675555555555 -1.86 38.354
    vertex -94.19933333333334 -1.86 38.354
  endloop
endfacet
facet normal -0 -1 0
  outer loop
    vertex -155.9264444444445 -1.86 38.354
    vertex -171.3582222222222 -1.86 38.354
    vertex -163.4468127531823 -1.86 26.76379287916797
  endloop
endfacet
facet normal 0 -1 0
  outer loop
    vertex -165.2912250244329 -1.86 13.96692368190443
    vertex -148.2105555555556 -1.86 19.177
    vertex -163.4468127531823 -1.86 26.76379287916797
  endloop
endfacet
facet normal 0 -1 0
  outer loop
    vertex -71.26133282874395 -1.86 26.75327472255922
    vertex -63.33577777777766 -1.86 38.354
    vertex -78.7675555555555 -1.86 38.354
  endloop
endfacet
facet normal 0 -1 0
  outer loop
    vertex -163.4468127531823 -1.86 26.76379287916797
    vertex -148.2105555555556 -1.86 19.177
    vertex -155.9264444444445 -1.86 38.354
  endloop
endfacet
facet normal 1 0 -5.55777e-16
  outer loop
    vertex -47.904 0 0
    vertex -47.904 -1.86 12.78466666666665
    vertex -47.904 -1.86 0
  endloop
endfacet
facet normal 1 0 5.55777e-16
  outer loop
    vertex -47.904 -1.86 25.56933333333329
    vertex -47.904 0 38.354
    vertex -47.904 -1.86 38.354
  endloop
endfacet
facet normal 1 3.82012e-15 0
  outer loop
    vertex -47.904 0 12.78466666666665
    vertex -47.904 -1.86 25.56933333333329
    vertex -47.904 -1.86 12.78466666666665
  endloop
endfacet
facet normal 1 3.82012e-15 -0
  outer loop
    vertex -47.904 0 25.56933333333329
    vertex -47.904 0 38.354
    vertex -47.904 -1.86 25.56933333333329
  endloop
endfacet
facet normal 1 3.82012e-15 -0
  outer loop
    vertex -47.904 0 0
    vertex -47.904 0 12.78466666666665
    vertex -47.904 -1.86 12.78466666666665
  endloop
endfacet
facet normal 1 3.82012e-15 -0
  outer loop
    vertex -47.904 0 12.78466666666665
    vertex -47.904 0 25.56933333333329
    vertex -47.904 -1.86 25.56933333333329
  endloop
endfacet
facet normal 0 -1 0
  outer loop
    vertex -17.9735685286228 0 30.95287931942
    vertex -11.9825918675628 0 19.92097709585031
    vertex -8.386432079237117 0 30.63023794972072
  endloop
endfacet
facet normal 0 -1 0
  outer loop
    vertex -23.96010173131505 0 22.85389628506
    vertex -11.9825918675628 0 19.92097709585031
    vertex -17.9735685286228 0 30.95287931942
  endloop
endfacet
facet normal -0 -1 0
  outer loop
    vertex -17.9735685286228 0 30.95287931942
    vertex -29.94935105127493 0 30.95384951622323
    vertex -23.96010173131505 0 22.85389628506
  endloop
endfacet
facet normal 0 -1 0
  outer loop
    vertex -29.94935105127493 0 30.95384951622323
    vertex -17.9735685286228 0 30.95287931942
    vertex -23.95200000000001 0 38.354
  endloop
endfacet
facet normal 0 -1 -0
  outer loop
    vertex -35.93049953485245 0 7.53774036007885
    vertex -47.904 0 0
    vertex -35.928 0 0
  endloop
endfacet
facet normal 0 -1 -0
  outer loop
    vertex -35.93456349984193 0 19.9211230638487
    vertex -47.904 0 12.78466666666665
    vertex -35.93049953485245 0 7.53774036007885
  endloop
endfacet
facet normal 0 -1 0
  outer loop
    vertex -11.9825918675628 0 19.92097709585031
    vertex 5.087041854826662e-43 0 25.56933333333329
    vertex -8.386432079237117 0 30.63023794972072
  endloop
endfacet
facet normal 0 -1 0
  outer loop
    vertex -39.52398291022337 0 30.63046118268104
    vertex -35.93456349984193 0 19.9211230638487
    vertex -29.94935105127493 0 30.95384951622323
  endloop
endfacet
facet normal 0 -1 0
  outer loop
    vertex -47.904 0 12.78466666666665
    vertex -47.904 0 0
    vertex -35.93049953485245 0 7.53774036007885
  endloop
endfacet
facet normal 0 -1 0
  outer loop
    vertex -11.976 0 0
    vertex 5.08704185482666e-43 0 0
    vertex -11.97850426280593 0 7.537716032079118
  endloop
endfacet
facet normal 0 -1 0
  outer loop
    vertex -11.97850426280593 0 7.537716032079118
    vertex 5.087041854826662e-43 0 12.78466666666665
    vertex -11.9825918675628 0 19.92097709585031
  endloop
endfacet
facet normal 0 -1 0
  outer loop
    vertex -11.97850426280593 0 7.537716032079118
    vertex 5.08704185482666e-43 0 0
    vertex 5.087041854826662e-43 0 12.78466666666665
  endloop
endfacet
facet normal 0 -1 -0
  outer loop
    vertex -29.94935105127493 0 30.95384951622323
    vertex -35.93456349984193 0 19.9211230638487
    vertex -23.96010173131505 0 22.85389628506
  endloop
endfacet
facet normal 0 -1 -0
  outer loop
    vertex -39.52398291022337 0 30.63046118268104
    vertex -47.904 0 25.56933333333329
    vertex -35.93456349984193 0 19.9211230638487
  endloop
endfacet
facet normal 0 -1 -0
  outer loop
    vertex -11.9825918675628 0 19.92097709585031
    vertex -23.96043370927278 0 12.52065242995775
    vertex -11.97850426280593 0 7.537716032079118
  endloop
endfacet
facet normal 0 -1 -0
  outer loop
    vertex -11.97850426280593 0 7.537716032079118
    vertex -23.95200000000001 0 0
    vertex -11.976 0 0
  endloop
endfacet
facet normal 0 -1 0
  outer loop
    vertex -11.9825918675628 0 19.92097709585031
    vertex 5.087041854826662e-43 0 12.78466666666665
    vertex 5.087041854826662e-43 0 25.56933333333329
  endloop
endfacet
facet normal -0 -1 0
  outer loop
    vertex -11.97850426280593 0 7.537716032079118
    vertex -23.96043370927278 0 12.52065242995775
    vertex -23.95200000000001 0 0
  endloop
endfacet
facet normal 0 -1 0
  outer loop
    vertex -35.93049953485245 0 7.53774036007885
    vertex -23.96043370927278 0 12.52065242995775
    vertex -35.93456349984193 0 19.9211230638487
  endloop
endfacet
facet normal 0 -1 0
  outer loop
    vertex -35.928 0 0
    vertex -23.95200000000001 0 0
    vertex -35.93049953485245 0 7.53774036007885
  endloop
endfacet
facet normal 0 -1 0
  outer loop
    vertex -47.904 0 25.56933333333329
    vertex -47.904 0 12.78466666666665
    vertex -35.93456349984193 0 19.9211230638487
  endloop
endfacet
facet normal 0 -1 0
  outer loop
    vertex -23.95200000000001 0 0
    vertex -23.96043370927278 0 12.52065242995775
    vertex -35.93049953485245 0 7.53774036007885
  endloop
endfacet
facet normal 0 -1 0
  outer loop
    vertex -8.386432079237117 0 30.63023794972072
    vertex 5.08704185482666e-43 0 38.354
    vertex -11.976 0 38.354
  endloop
endfacet
facet normal 0 -1 -0
  outer loop
    vertex -11.976 0 38.354
    vertex -17.9735685286228 0 30.95287931942
    vertex -8.386432079237117 0 30.63023794972072
  endloop
endfacet
facet normal 0 -1 0
  outer loop
    vertex 5.087041854826662e-43 0 25.56933333333329
    vertex 5.08704185482666e-43 0 38.354
    vertex -8.386432079237117 0 30.63023794972072
  endloop
endfacet
facet normal -0 -1 0
  outer loop
    vertex -39.52398291022337 0 30.63046118268104
    vertex -47.904 0 38.354
    vertex -47.904 0 25.56933333333329
  endloop
endfacet
facet normal 0 -1 0
  outer loop
    vertex -39.52398291022337 0 30.63046118268104
    vertex -29.94935105127493 0 30.95384951622323
    vertex -35.928 0 38.354
  endloop
endfacet
facet normal -0 -1 0
  outer loop
    vertex -23.95200000000001 0 38.354
    vertex -35.928 0 38.354
    vertex -29.94935105127493 0 30.95384951622323
  endloop
endfacet
facet normal -0 -1 0
  outer loop
    vertex -35.928 0 38.354
    vertex -47.904 0 38.354
    vertex -39.52398291022337 0 30.63046118268104
  endloop
endfacet
facet normal 0 -1 0
  outer loop
    vertex -23.96010173131505 0 22.85389628506
    vertex -35.93456349984193 0 19.9211230638487
    vertex -23.96043370927278 0 12.52065242995775
  endloop
endfacet
facet normal 0 -1 0
  outer loop
    vertex -17.9735685286228 0 30.95287931942
    vertex -11.976 0 38.354
    vertex -23.95200000000001 0 38.354
  endloop
endfacet
facet normal 0 -1 0
  outer loop
    vertex -23.96043370927278 0 12.52065242995775
    vertex -11.9825918675628 0 19.92097709585031
    vertex -23.96010173131505 0 22.85389628506
  endloop
endfacet
facet normal 0 0 -1
  outer loop
    vertex -179.425 20.13675000000002 0
    vertex -166.4669309210527 18.78586623101912 0
    vertex -176.0570589944292 9.517237067046059 0
  endloop
endfacet
facet normal 0 0 -1
  outer loop
    vertex -11.976 0 0
    vertex -23.95200000000001 0 0
    vertex -23.952 11.65 0
  endloop
endfacet
facet normal 0 0 -1
  outer loop
    vertex -179.425 20.13675000000002 0
    vertex -172.0599999999999 27.469 0
    vertex -166.4669309210527 18.78586623101912 0
  endloop
endfacet
facet normal 0 0 -1
  outer loop
    vertex -63.33577777777766 -1.86 0
    vertex -47.904 0 0
    vertex -47.904 -1.86 0
  endloop
endfacet
facet normal 0 0 -1
  outer loop
    vertex -162.1745265318873 8.563710319068667 0
    vertex -166.4669309210527 18.78586623101912 0
    vertex -151.755 19.55949999999999 0
  endloop
endfacet
facet normal 0 0 -1
  outer loop
    vertex -166.4669309210527 18.78586623101912 0
    vertex -157.33 27.469 0
    vertex -151.755 19.55949999999999 0
  endloop
endfacet
facet normal 0 0 -1
  outer loop
    vertex -102.4312158685396 5.657304072957411 0
    vertex -106.8724722693258 14.79780838964499 0
    vertex -97.19 11.65 0
  endloop
endfacet
facet normal 0 0 -1
  outer loop
    vertex -131.3333987191582 15.82331976275616 0
    vertex -126.6466666666666 27.469 0
    vertex -119.1366451647474 13.63985469206686 0
  endloop
endfacet
facet normal 0 0 -1
  outer loop
    vertex -155.9264444444445 -1.86 0
    vertex -151.3061275285997 7.210642063813728 0
    vertex -140.4946666666667 -1.86 0
  endloop
endfacet
facet normal 0 0 -1
  outer loop
    vertex -151.3061275285997 7.210642063813728 0
    vertex -146.18 11.65 0
    vertex -140.4946666666667 -1.86 0
  endloop
endfacet
facet normal 0 0 -1
  outer loop
    vertex -106.8724722693258 14.79780838964499 0
    vertex -100.545 19.5595 0
    vertex -97.19 11.65 0
  endloop
endfacet
facet normal 0 0 -1
  outer loop
    vertex -142.1 19.55949999999998 0
    vertex -138.02 27.469 0
    vertex -131.3333987191582 15.82331976275616 0
  endloop
endfacet
facet normal -0 0 -1
  outer loop
    vertex -131.3333987191582 15.82331976275616 0
    vertex -137.0341908549428 8.662563952551224 0
    vertex -142.1 19.55949999999998 0
  endloop
endfacet
facet normal 0 0 -1
  outer loop
    vertex 5.08704185482666e-43 0 0
    vertex -11.976 11.65 0
    vertex 5.08704185482666e-43 11.65 0
  endloop
endfacet
facet normal 0 0 -1
  outer loop
    vertex -131.3333987191582 15.82331976275616 0
    vertex -138.02 27.469 0
    vertex -126.6466666666666 27.469 0
  endloop
endfacet
facet normal -0 0 -1
  outer loop
    vertex -54.611 27.469 0
    vertex -59.94489147274148 15.92067870964321 0
    vertex -65.4016666666667 27.469 0
  endloop
endfacet
facet normal -0 0 -1
  outer loop
    vertex -51.25750000000001 19.5595 0
    vertex -59.94489147274148 15.92067870964321 0
    vertex -54.611 27.469 0
  endloop
endfacet
facet normal 0 0 -1
  outer loop
    vertex -162.1745265318873 8.563710319068667 0
    vertex -176.0570589944292 9.517237067046059 0
    vertex -166.4669309210527 18.78586623101912 0
  endloop
endfacet
facet normal 0 0 -1
  outer loop
    vertex -92.08650000000002 19.55949999999998 0
    vertex -82.32279951865766 15.85654077858941 0
    vertex -88.91323761418366 8.669208131100325 0
  endloop
endfacet
facet normal 0 0 -1
  outer loop
    vertex -11.976 0 0
    vertex -11.976 11.65 0
    vertex 5.08704185482666e-43 0 0
  endloop
endfacet
facet normal 0 0 -1
  outer loop
    vertex -97.19 11.65 0
    vertex -92.08650000000002 19.55949999999998 0
    vertex -88.91323761418366 8.669208131100325 0
  endloop
endfacet
facet normal 0 0 -1
  outer loop
    vertex -92.08650000000002 19.55949999999998 0
    vertex -86.983 27.469 0
    vertex -82.32279951865766 15.85654077858941 0
  endloop
endfacet
facet normal -0 0 -1
  outer loop
    vertex -103.9 27.469 0
    vertex -106.8724722693258 14.79780838964499 0
    vertex -115.2733333333333 27.469 0
  endloop
endfacet
facet normal 0 0 -1
  outer loop
    vertex -186.79 12.80450000000004 0
    vertex -186.79 27.469 0
    vertex -179.425 20.13675000000002 0
  endloop
endfacet
facet normal -0 0 -1
  outer loop
    vertex -35.928 11.65 0
    vertex -47.904 0 0
    vertex -47.904 11.65 0
  endloop
endfacet
facet normal 0 0 -1
  outer loop
    vertex -35.928 0 0
    vertex -47.904 0 0
    vertex -35.928 11.65 0
  endloop
endfacet
facet normal 0 0 -1
  outer loop
    vertex -11.976 0 0
    vertex -23.952 11.65 0
    vertex -11.976 11.65 0
  endloop
endfacet
facet normal 0 -0 -1
  outer loop
    vertex -179.425 20.13675000000002 0
    vertex -176.0570589944292 9.517237067046059 0
    vertex -186.79 12.80450000000004 0
  endloop
endfacet
facet normal 0 0 -1
  outer loop
    vertex -23.95200000000001 0 0
    vertex -35.928 0 0
    vertex -23.952 11.65 0
  endloop
endfacet
facet normal 0 0 -1
  outer loop
    vertex -179.425 20.13675000000002 0
    vertex -186.79 27.469 0
    vertex -172.0599999999999 27.469 0
  endloop
endfacet
facet normal -0 0 -1
  outer loop
    vertex -100.545 19.5595 0
    vertex -106.8724722693258 14.79780838964499 0
    vertex -103.9 27.469 0
  endloop
endfacet
facet normal 0 0 -1
  outer loop
    vertex -109.6311111111112 -1.86 0
    vertex -102.4312158685396 5.657304072957411 0
    vertex -94.19933333333334 -1.86 0
  endloop
endfacet
facet normal 0 0 -1
  outer loop
    vertex -94.19933333333334 -1.86 0
    vertex -102.4312158685396 5.657304072957411 0
    vertex -97.19 11.65 0
  endloop
endfacet
facet normal -0 0 -1
  outer loop
    vertex -23.952 11.65 0
    vertex -35.928 0 0
    vertex -35.928 11.65 0
  endloop
endfacet
facet normal 0 0 -1
  outer loop
    vertex -140.4946666666667 -1.86 0
    vertex -137.0341908549428 8.662563952551224 0
    vertex -125.062888888889 -1.86 0
  endloop
endfacet
facet normal 0 0 -1
  outer loop
    vertex -146.18 11.65 0
    vertex -137.0341908549428 8.662563952551224 0
    vertex -140.4946666666667 -1.86 0
  endloop
endfacet
facet normal 0 0 -1
  outer loop
    vertex -172.0599999999999 27.469 0
    vertex -157.33 27.469 0
    vertex -166.4669309210527 18.78586623101912 0
  endloop
endfacet
facet normal 0 0 -1
  outer loop
    vertex -171.3582222222222 -1.86 0
    vertex -186.79 -1.86 0
    vertex -176.0570589944292 9.517237067046059 0
  endloop
endfacet
facet normal -0 0 -1
  outer loop
    vertex -176.0570589944292 9.517237067046059 0
    vertex -186.79 -1.86 0
    vertex -186.79 12.80450000000004 0
  endloop
endfacet
facet normal 0 0 -1
  outer loop
    vertex -63.33577777777766 -1.86 0
    vertex -78.7675555555555 -1.86 0
    vertex -70.99417072078873 13.8325365813721 0
  endloop
endfacet
facet normal 0 0 -1
  outer loop
    vertex -76.19233333333337 27.469 0
    vertex -65.4016666666667 27.469 0
    vertex -70.99417072078873 13.8325365813721 0
  endloop
endfacet
facet normal 0 0 -1
  outer loop
    vertex -131.3333987191582 15.82331976275616 0
    vertex -119.1366451647474 13.63985469206686 0
    vertex -125.062888888889 -1.86 0
  endloop
endfacet
facet normal 0 -0 -1
  outer loop
    vertex -162.1745265318873 8.563710319068667 0
    vertex -155.9264444444445 -1.86 0
    vertex -171.3582222222222 -1.86 0
  endloop
endfacet
facet normal 0 0 -1
  outer loop
    vertex -125.062888888889 -1.86 0
    vertex -137.0341908549428 8.662563952551224 0
    vertex -131.3333987191582 15.82331976275616 0
  endloop
endfacet
facet normal 0 0 -1
  outer loop
    vertex -94.19933333333334 -1.86 0
    vertex -88.91323761418366 8.669208131100325 0
    vertex -78.7675555555555 -1.86 0
  endloop
endfacet
facet normal 0 0 -1
  outer loop
    vertex -97.19 11.65 0
    vertex -88.91323761418366 8.669208131100325 0
    vertex -94.19933333333334 -1.86 0
  endloop
endfacet
facet normal 0 -0 -1
  outer loop
    vertex -54.06923385010383 9.054035741928642 0
    vertex -47.904 0 0
    vertex -63.33577777777766 -1.86 0
  endloop
endfacet
facet normal 0 -0 -1
  outer loop
    vertex -119.1366451647474 13.63985469206686 0
    vertex -109.6311111111112 -1.86 0
    vertex -125.062888888889 -1.86 0
  endloop
endfacet
facet normal 0 0 -1
  outer loop
    vertex -119.1366451647474 13.63985469206686 0
    vertex -126.6466666666666 27.469 0
    vertex -115.2733333333333 27.469 0
  endloop
endfacet
facet normal 0 -0 -1
  outer loop
    vertex -47.904 11.65 0
    vertex -47.904 0 0
    vertex -54.06923385010383 9.054035741928642 0
  endloop
endfacet
facet normal 0 0 -1
  outer loop
    vertex -109.6311111111112 -1.86 0
    vertex -106.8724722693258 14.79780838964499 0
    vertex -102.4312158685396 5.657304072957411 0
  endloop
endfacet
facet normal 0 0 -1
  outer loop
    vertex -176.0570589944292 9.517237067046059 0
    vertex -162.1745265318873 8.563710319068667 0
    vertex -171.3582222222222 -1.86 0
  endloop
endfacet
facet normal 0 0 -1
  outer loop
    vertex -137.0341908549428 8.662563952551224 0
    vertex -146.18 11.65 0
    vertex -142.1 19.55949999999998 0
  endloop
endfacet
facet normal 0 0 -1
  outer loop
    vertex -82.32279951865766 15.85654077858941 0
    vertex -86.983 27.469 0
    vertex -76.19233333333337 27.469 0
  endloop
endfacet
facet normal 0 0 -1
  outer loop
    vertex -82.32279951865766 15.85654077858941 0
    vertex -70.99417072078873 13.8325365813721 0
    vertex -78.7675555555555 -1.86 0
  endloop
endfacet
facet normal 0 0 -1
  outer loop
    vertex -155.9264444444445 -1.86 0
    vertex -162.1745265318873 8.563710319068667 0
    vertex -151.3061275285997 7.210642063813728 0
  endloop
endfacet
facet normal 0 -0 -1
  outer loop
    vertex -76.19233333333337 27.469 0
    vertex -70.99417072078873 13.8325365813721 0
    vertex -82.32279951865766 15.85654077858941 0
  endloop
endfacet
facet normal 0 0 -1
  outer loop
    vertex -88.91323761418366 8.669208131100325 0
    vertex -82.32279951865766 15.85654077858941 0
    vertex -78.7675555555555 -1.86 0
  endloop
endfacet
facet normal 0 0 -1
  outer loop
    vertex -63.33577777777766 -1.86 0
    vertex -70.99417072078873 13.8325365813721 0
    vertex -59.94489147274148 15.92067870964321 0
  endloop
endfacet
facet normal 0 -0 -1
  outer loop
    vertex -51.25750000000001 19.5595 0
    vertex -47.904 11.65 0
    vertex -54.06923385010383 9.054035741928642 0
  endloop
endfacet
facet normal -0 0 -1
  outer loop
    vertex -59.94489147274148 15.92067870964321 0
    vertex -70.99417072078873 13.8325365813721 0
    vertex -65.4016666666667 27.469 0
  endloop
endfacet
facet normal 0 0 -1
  outer loop
    vertex -54.06923385010383 9.054035741928642 0
    vertex -59.94489147274148 15.92067870964321 0
    vertex -51.25750000000001 19.5595 0
  endloop
endfacet
facet normal 0 0 -1
  outer loop
    vertex -109.6311111111112 -1.86 0
    vertex -119.1366451647474 13.63985469206686 0
    vertex -106.8724722693258 14.79780838964499 0
  endloop
endfacet
facet normal 0 0 -1
  outer loop
    vertex -151.755 19.55949999999999 0
    vertex -146.18 11.65 0
    vertex -151.3061275285997 7.210642063813728 0
  endloop
endfacet
facet normal -0 0 -1
  outer loop
    vertex -106.8724722693258 14.79780838964499 0
    vertex -119.1366451647474 13.63985469206686 0
    vertex -115.2733333333333 27.469 0
  endloop
endfacet
facet normal 0 0 -1
  outer loop
    vertex -151.3061275285997 7.210642063813728 0
    vertex -162.1745265318873 8.563710319068667 0
    vertex -151.755 19.55949999999999 0
  endloop
endfacet
facet normal 0 0 -1
  outer loop
    vertex -63.33577777777766 -1.86 0
    vertex -59.94489147274148 15.92067870964321 0
    vertex -54.06923385010383 9.054035741928642 0
  endloop
endfacet
facet normal 0 0 1
  outer loop
    vertex -63.33577777777766 -1.86 38.354
    vertex -47.904 -1.86 38.354
    vertex -47.904 0 38.354
  endloop
endfacet
facet normal 0 0 1
  outer loop
    vertex -11.976 0 38.354
    vertex -23.952 11.65 38.354
    vertex -23.95200000000001 0 38.354
  endloop
endfacet
facet normal 0 0 1
  outer loop
    vertex -179.425 20.13675000000002 38.354
    vertex -176.0570589944292 9.517237067046059 38.354
    vertex -166.4669309210527 18.78586623101912 38.354
  endloop
endfacet
facet normal -0 0 1
  outer loop
    vertex -179.425 20.13675000000002 38.354
    vertex -166.4669309210527 18.78586623101912 38.354
    vertex -172.0599999999999 27.469 38.354
  endloop
endfacet
facet normal 0 -0 1
  outer loop
    vertex -162.1745265318873 8.563710319068667 38.354
    vertex -151.755 19.55949999999999 38.354
    vertex -166.4669309210527 18.78586623101912 38.354
  endloop
endfacet
facet normal 0 0 1
  outer loop
    vertex -166.4669309210527 18.78586623101912 38.354
    vertex -151.755 19.55949999999999 38.354
    vertex -157.33 27.469 38.354
  endloop
endfacet
facet normal 0 -0 1
  outer loop
    vertex -102.4312158685396 5.657304072957411 38.354
    vertex -97.19 11.65 38.354
    vertex -106.8724722693258 14.79780838964499 38.354
  endloop
endfacet
facet normal -0 0 1
  outer loop
    vertex -131.3333987191582 15.82331976275616 38.354
    vertex -119.1366451647474 13.63985469206686 38.354
    vertex -126.6466666666666 27.469 38.354
  endloop
endfacet
facet normal -0 0 1
  outer loop
    vertex -106.8724722693258 14.79780838964499 38.354
    vertex -97.19 11.65 38.354
    vertex -100.545 19.5595 38.354
  endloop
endfacet
facet normal -0 0 1
  outer loop
    vertex -142.1 19.55949999999998 38.354
    vertex -131.3333987191582 15.82331976275616 38.354
    vertex -138.02 27.469 38.354
  endloop
endfacet
facet normal 0 0 1
  outer loop
    vertex -155.9264444444445 -1.86 38.354
    vertex -140.4946666666667 -1.86 38.354
    vertex -151.3061275285997 7.210642063813728 38.354
  endloop
endfacet
facet normal -0 0 1
  outer loop
    vertex -151.3061275285997 7.210642063813728 38.354
    vertex -140.4946666666667 -1.86 38.354
    vertex -146.18 11.65 38.354
  endloop
endfacet
facet normal 0 0 1
  outer loop
    vertex -131.3333987191582 15.82331976275616 38.354
    vertex -142.1 19.55949999999998 38.354
    vertex -137.0341908549428 8.662563952551224 38.354
  endloop
endfacet
facet normal 0 -0 1
  outer loop
    vertex -131.3333987191582 15.82331976275616 38.354
    vertex -126.6466666666666 27.469 38.354
    vertex -138.02 27.469 38.354
  endloop
endfacet
facet normal 0 -0 1
  outer loop
    vertex 5.08704185482666e-43 0 38.354
    vertex 5.08704185482666e-43 11.65 38.354
    vertex -11.976 11.65 38.354
  endloop
endfacet
facet normal 0 0 1
  outer loop
    vertex -54.611 27.469 38.354
    vertex -65.4016666666667 27.469 38.354
    vertex -59.94489147274148 15.92067870964321 38.354
  endloop
endfacet
facet normal 0 0 1
  outer loop
    vertex -51.25750000000001 19.5595 38.354
    vertex -54.611 27.469 38.354
    vertex -59.94489147274148 15.92067870964321 38.354
  endloop
endfacet
facet normal 0 0 1
  outer loop
    vertex -162.1745265318873 8.563710319068667 38.354
    vertex -166.4669309210527 18.78586623101912 38.354
    vertex -176.0570589944292 9.517237067046059 38.354
  endloop
endfacet
facet normal 0 0 1
  outer loop
    vertex -92.08650000000002 19.55949999999998 38.354
    vertex -88.91323761418366 8.669208131100325 38.354
    vertex -82.32279951865766 15.85654077858941 38.354
  endloop
endfacet
facet normal -0 0 1
  outer loop
    vertex -97.19 11.65 38.354
    vertex -88.91323761418366 8.669208131100325 38.354
    vertex -92.08650000000002 19.55949999999998 38.354
  endloop
endfacet
facet normal -0 0 1
  outer loop
    vertex -92.08650000000002 19.55949999999998 38.354
    vertex -82.32279951865766 15.85654077858941 38.354
    vertex -86.983 27.469 38.354
  endloop
endfacet
facet normal 0 0 1
  outer loop
    vertex -11.976 0 38.354
    vertex 5.08704185482666e-43 0 38.354
    vertex -11.976 11.65 38.354
  endloop
endfacet
facet normal 0 0 1
  outer loop
    vertex -103.9 27.469 38.354
    vertex -115.2733333333333 27.469 38.354
    vertex -106.8724722693258 14.79780838964499 38.354
  endloop
endfacet
facet normal 0 0 1
  outer loop
    vertex -186.79 12.80450000000004 38.354
    vertex -179.425 20.13675000000002 38.354
    vertex -186.79 27.469 38.354
  endloop
endfacet
facet normal 0 0 1
  outer loop
    vertex -179.425 20.13675000000002 38.354
    vertex -186.79 12.80450000000004 38.354
    vertex -176.0570589944292 9.517237067046059 38.354
  endloop
endfacet
facet normal 0 -0 1
  outer loop
    vertex -179.425 20.13675000000002 38.354
    vertex -172.0599999999999 27.469 38.354
    vertex -186.79 27.469 38.354
  endloop
endfacet
facet normal 0 0 1
  outer loop
    vertex -35.928 11.65 38.354
    vertex -47.904 11.65 38.354
    vertex -47.904 0 38.354
  endloop
endfacet
facet normal 0 -0 1
  outer loop
    vertex -11.976 0 38.354
    vertex -11.976 11.65 38.354
    vertex -23.952 11.65 38.354
  endloop
endfacet
facet normal 0 -0 1
  outer loop
    vertex -23.95200000000001 0 38.354
    vertex -23.952 11.65 38.354
    vertex -35.928 0 38.354
  endloop
endfacet
facet normal 0 0 1
  outer loop
    vertex -100.545 19.5595 38.354
    vertex -103.9 27.469 38.354
    vertex -106.8724722693258 14.79780838964499 38.354
  endloop
endfacet
facet normal 0 0 1
  outer loop
    vertex -109.6311111111112 -1.86 38.354
    vertex -94.19933333333334 -1.86 38.354
    vertex -102.4312158685396 5.657304072957411 38.354
  endloop
endfacet
facet normal 0 0 1
  outer loop
    vertex -94.19933333333334 -1.86 38.354
    vertex -97.19 11.65 38.354
    vertex -102.4312158685396 5.657304072957411 38.354
  endloop
endfacet
facet normal 0 0 1
  outer loop
    vertex -140.4946666666667 -1.86 38.354
    vertex -125.062888888889 -1.86 38.354
    vertex -137.0341908549428 8.662563952551224 38.354
  endloop
endfacet
facet normal 0 0 1
  outer loop
    vertex -23.952 11.65 38.354
    vertex -35.928 11.65 38.354
    vertex -35.928 0 38.354
  endloop
endfacet
facet normal 0 0 1
  outer loop
    vertex -146.18 11.65 38.354
    vertex -140.4946666666667 -1.86 38.354
    vertex -137.0341908549428 8.662563952551224 38.354
  endloop
endfacet
facet normal -0 0 1
  outer loop
    vertex -172.0599999999999 27.469 38.354
    vertex -166.4669309210527 18.78586623101912 38.354
    vertex -157.33 27.469 38.354
  endloop
endfacet
facet normal 0 -0 1
  outer loop
    vertex -35.928 0 38.354
    vertex -35.928 11.65 38.354
    vertex -47.904 0 38.354
  endloop
endfacet
facet normal -0 0 1
  outer loop
    vertex -76.19233333333337 27.469 38.354
    vertex -70.99417072078873 13.8325365813721 38.354
    vertex -65.4016666666667 27.469 38.354
  endloop
endfacet
facet normal 0 0 1
  outer loop
    vertex -63.33577777777766 -1.86 38.354
    vertex -70.99417072078873 13.8325365813721 38.354
    vertex -78.7675555555555 -1.86 38.354
  endloop
endfacet
facet normal 0 0 1
  outer loop
    vertex -171.3582222222222 -1.86 38.354
    vertex -176.0570589944292 9.517237067046059 38.354
    vertex -186.79 -1.86 38.354
  endloop
endfacet
facet normal 0 0 1
  outer loop
    vertex -176.0570589944292 9.517237067046059 38.354
    vertex -186.79 12.80450000000004 38.354
    vertex -186.79 -1.86 38.354
  endloop
endfacet
facet normal 0 0 1
  outer loop
    vertex -131.3333987191582 15.82331976275616 38.354
    vertex -125.062888888889 -1.86 38.354
    vertex -119.1366451647474 13.63985469206686 38.354
  endloop
endfacet
facet normal 0 0 1
  outer loop
    vertex -162.1745265318873 8.563710319068667 38.354
    vertex -171.3582222222222 -1.86 38.354
    vertex -155.9264444444445 -1.86 38.354
  endloop
endfacet
facet normal 0 0 1
  outer loop
    vertex -125.062888888889 -1.86 38.354
    vertex -131.3333987191582 15.82331976275616 38.354
    vertex -137.0341908549428 8.662563952551224 38.354
  endloop
endfacet
facet normal 0 0 1
  outer loop
    vertex -94.19933333333334 -1.86 38.354
    vertex -78.7675555555555 -1.86 38.354
    vertex -88.91323761418366 8.669208131100325 38.354
  endloop
endfacet
facet normal 0 -0 1
  outer loop
    vertex -119.1366451647474 13.63985469206686 38.354
    vertex -115.2733333333333 27.469 38.354
    vertex -126.6466666666666 27.469 38.354
  endloop
endfacet
facet normal 0 0 1
  outer loop
    vertex -119.1366451647474 13.63985469206686 38.354
    vertex -125.062888888889 -1.86 38.354
    vertex -109.6311111111112 -1.86 38.354
  endloop
endfacet
facet normal 0 0 1
  outer loop
    vertex -97.19 11.65 38.354
    vertex -94.19933333333334 -1.86 38.354
    vertex -88.91323761418366 8.669208131100325 38.354
  endloop
endfacet
facet normal 0 0 1
  outer loop
    vertex -54.06923385010383 9.054035741928642 38.354
    vertex -63.33577777777766 -1.86 38.354
    vertex -47.904 0 38.354
  endloop
endfacet
facet normal 0 0 1
  outer loop
    vertex -47.904 11.65 38.354
    vertex -54.06923385010383 9.054035741928642 38.354
    vertex -47.904 0 38.354
  endloop
endfacet
facet normal 0 0 1
  outer loop
    vertex -109.6311111111112 -1.86 38.354
    vertex -102.4312158685396 5.657304072957411 38.354
    vertex -106.8724722693258 14.79780838964499 38.354
  endloop
endfacet
facet normal 0 0 1
  outer loop
    vertex -176.0570589944292 9.517237067046059 38.354
    vertex -171.3582222222222 -1.86 38.354
    vertex -162.1745265318873 8.563710319068667 38.354
  endloop
endfacet
facet normal 0 0 1
  outer loop
    vertex -137.0341908549428 8.662563952551224 38.354
    vertex -142.1 19.55949999999998 38.354
    vertex -146.18 11.65 38.354
  endloop
endfacet
facet normal 0 -0 1
  outer loop
    vertex -82.32279951865766 15.85654077858941 38.354
    vertex -76.19233333333337 27.469 38.354
    vertex -86.983 27.469 38.354
  endloop
endfacet
facet normal 0 0 1
  outer loop
    vertex -82.32279951865766 15.85654077858941 38.354
    vertex -78.7675555555555 -1.86 38.354
    vertex -70.99417072078873 13.8325365813721 38.354
  endloop
endfacet
facet normal 0 -0 1
  outer loop
    vertex -155.9264444444445 -1.86 38.354
    vertex -151.3061275285997 7.210642063813728 38.354
    vertex -162.1745265318873 8.563710319068667 38.354
  endloop
endfacet
facet normal 0 0 1
  outer loop
    vertex -76.19233333333337 27.469 38.354
    vertex -82.32279951865766 15.85654077858941 38.354
    vertex -70.99417072078873 13.8325365813721 38.354
  endloop
endfacet
facet normal -0 0 1
  outer loop
    vertex -88.91323761418366 8.669208131100325 38.354
    vertex -78.7675555555555 -1.86 38.354
    vertex -82.32279951865766 15.85654077858941 38.354
  endloop
endfacet
facet normal 0 -0 1
  outer loop
    vertex -63.33577777777766 -1.86 38.354
    vertex -59.94489147274148 15.92067870964321 38.354
    vertex -70.99417072078873 13.8325365813721 38.354
  endloop
endfacet
facet normal 0 0 1
  outer loop
    vertex -51.25750000000001 19.5595 38.354
    vertex -54.06923385010383 9.054035741928642 38.354
    vertex -47.904 11.65 38.354
  endloop
endfacet
facet normal 0 0 1
  outer loop
    vertex -59.94489147274148 15.92067870964321 38.354
    vertex -65.4016666666667 27.469 38.354
    vertex -70.99417072078873 13.8325365813721 38.354
  endloop
endfacet
facet normal 0 -0 1
  outer loop
    vertex -54.06923385010383 9.054035741928642 38.354
    vertex -51.25750000000001 19.5595 38.354
    vertex -59.94489147274148 15.92067870964321 38.354
  endloop
endfacet
facet normal 0 -0 1
  outer loop
    vertex -109.6311111111112 -1.86 38.354
    vertex -106.8724722693258 14.79780838964499 38.354
    vertex -119.1366451647474 13.63985469206686 38.354
  endloop
endfacet
facet normal 0 0 1
  outer loop
    vertex -151.755 19.55949999999999 38.354
    vertex -151.3061275285997 7.210642063813728 38.354
    vertex -146.18 11.65 38.354
  endloop
endfacet
facet normal 0 0 1
  outer loop
    vertex -106.8724722693258 14.79780838964499 38.354
    vertex -115.2733333333333 27.469 38.354
    vertex -119.1366451647474 13.63985469206686 38.354
  endloop
endfacet
facet normal 0 0 1
  outer loop
    vertex -151.3061275285997 7.210642063813728 38.354
    vertex -151.755 19.55949999999999 38.354
    vertex -162.1745265318873 8.563710319068667 38.354
  endloop
endfacet
facet normal 0 0 1
  outer loop
    vertex -63.33577777777766 -1.86 38.354
    vertex -54.06923385010383 9.054035741928642 38.354
    vertex -59.94489147274148 15.92067870964321 38.354
  endloop
endfacet
endsolid Created by Gmsh
